<svg width="2280" height="690" viewBox="0 0 2280 690" fill="none" xmlns="http://www.w3.org/2000/svg">
<rect width="2280" height="690" fill="#181435"/>
<g clip-path="url(#clip0_33983_88202)">
<rect x="32.5" y="32.5" width="2215" height="625" rx="31.5" fill="#141031" stroke="#3D3192"/>
<g opacity="0.4" filter="url(#filter0_f_33983_88202)">
<ellipse cx="1140" cy="345" rx="506" ry="262" fill="#6551F3"/>
</g>
<circle cx="1139.52" cy="344.515" r="119.145" fill="white" fill-opacity="0.01" stroke="#A397F8" stroke-width="0.614783"/>
<circle cx="1139.51" cy="344.506" r="238.905" fill="white" fill-opacity="0.01"/>
<circle cx="1139.51" cy="344.506" r="238.597" stroke="#A397F8" stroke-opacity="0.9" stroke-width="0.614783"/>
<circle cx="1139.54" cy="344.537" r="358.357" fill="white" fill-opacity="0.01"/>
<circle cx="1139.54" cy="344.537" r="358.05" stroke="#A397F8" stroke-opacity="0.8" stroke-width="0.614783"/>
<circle cx="1139.53" cy="344.528" r="477.81" fill="white" fill-opacity="0.01"/>
<circle cx="1139.53" cy="344.528" r="477.502" stroke="#A397F8" stroke-opacity="0.7" stroke-width="0.614783"/>
<circle cx="1139.52" cy="344.527" r="597.262" fill="white" fill-opacity="0.01"/>
<circle cx="1139.52" cy="344.527" r="596.954" stroke="#A397F8" stroke-opacity="0.6" stroke-width="0.614783"/>
<circle cx="1139.52" cy="344.519" r="716.714" fill="white" fill-opacity="0.01"/>
<circle cx="1139.52" cy="344.519" r="716.407" stroke="#A397F8" stroke-opacity="0.5" stroke-width="0.614783"/>
<circle cx="1139.51" cy="344.51" r="836.167" fill="white" fill-opacity="0.01"/>
<circle cx="1139.51" cy="344.51" r="835.859" stroke="#A397F8" stroke-opacity="0.4" stroke-width="0.614783"/>
<circle cx="1139.54" cy="344.541" r="955.619" fill="white" fill-opacity="0.01"/>
<circle cx="1139.54" cy="344.541" r="955.312" stroke="#A397F8" stroke-opacity="0.3" stroke-width="0.614783"/>
<circle cx="1139.53" cy="344.532" r="1075.07" fill="white" fill-opacity="0.01"/>
<circle cx="1139.53" cy="344.532" r="1074.76" stroke="#A397F8" stroke-opacity="0.2" stroke-width="0.614783"/>
<circle cx="1139.52" cy="344.524" r="1194.52" fill="white" fill-opacity="0.01"/>
<circle cx="1139.52" cy="344.524" r="1194.22" stroke="#A397F8" stroke-opacity="0.1" stroke-width="0.614783"/>
<g clip-path="url(#clip1_33983_88202)">
<mask id="mask0_33983_88202" style="mask-type:luminance" maskUnits="userSpaceOnUse" x="189" y="139" width="265" height="91">
<path d="M453.983 139.258H189V229.116H453.983V139.258Z" fill="white"/>
</mask>
<g mask="url(#mask0_33983_88202)">
<path d="M309.364 227.728C302.623 227.728 297.518 226.333 294.201 223.586C290.801 220.774 289.078 216.591 289.078 211.152V172.03C289.078 165.92 290.806 161.412 294.211 158.633C297.578 155.886 302.985 154.547 310.735 154.547H350.316C357.056 154.547 362.161 155.941 365.483 158.688C368.883 161.5 370.606 165.684 370.606 171.122V200.071H310.763V206.844H371.07L365.015 227.728H309.373H309.364ZM348.921 182.203V175.431H310.753V182.203H348.921Z" fill="#9F93F8"/>
<path d="M350.312 155.939C356.755 155.939 361.509 157.208 364.589 159.761C367.67 162.313 369.208 166.098 369.208 171.125V198.684H309.364V208.236H369.208L363.959 226.34H309.364C302.925 226.34 298.167 225.071 295.087 222.518C292.006 219.966 290.468 216.181 290.468 211.155V172.033C290.468 166.334 292.006 162.225 295.087 159.715C298.167 157.199 303.379 155.944 310.731 155.944H350.312M309.364 183.6H350.312V174.048H309.364V183.6ZM350.312 153.164H310.731C302.647 153.164 296.958 154.6 293.331 157.56C289.588 160.613 287.688 165.482 287.688 172.033V211.155C287.688 217.029 289.583 221.573 293.317 224.663C296.944 227.665 302.193 229.124 309.369 229.124H366.053L366.637 227.119L371.885 209.014L372.914 205.461H312.148V201.468H371.992V171.129C371.992 165.255 370.097 160.711 366.363 157.625C362.736 154.623 357.487 153.164 350.312 153.164ZM312.144 176.827H347.532V180.821H312.144V176.827Z" fill="#9F93F8"/>
<path d="M424.123 227.728L424.225 226.241C424.253 225.842 426.884 188.031 427.801 175.356C423.813 175.356 420.852 175.375 417.985 175.393C415.062 175.412 412.046 175.426 407.937 175.431L404.05 227.728H379.363L383.25 175.431H371.034L377.088 154.547H432.309C439.04 154.547 444.145 155.941 447.471 158.688C452.252 162.631 452.711 168.509 452.572 173.193C452.53 174.56 452.442 175.894 452.359 177.019L451.39 190.644C450.723 200.136 450.061 209.628 449.398 219.12L449.287 220.686C449.282 220.751 449.269 221.015 449.241 221.4C449.194 222.178 449.116 223.438 449.046 224.503C449.009 225.041 448.977 225.532 448.949 225.884C448.903 226.481 448.801 227.728 447.504 227.728H424.114H424.123Z" fill="#9F93F8"/>
<path d="M432.308 155.936C438.752 155.936 443.505 157.214 446.585 159.758C450.731 163.177 451.324 168.226 451.181 173.15C451.144 174.42 451.06 175.694 450.972 176.917C450.648 181.457 450.328 186.006 450.004 190.546C449.3 200.561 448.6 210.572 447.906 220.588C447.882 220.889 447.567 226.342 447.507 226.342H425.609C425.609 226.342 428.49 184.936 429.292 173.97C419.744 173.97 416.196 174.045 406.643 174.045L402.757 226.342H380.858L384.745 174.045H372.881L378.13 155.94H432.303M432.303 153.161H376.041L375.457 155.167L370.208 173.271L369.18 176.824H381.748L378.083 226.138L377.861 229.121H405.332L405.522 226.545L409.214 176.819C412.684 176.815 415.366 176.801 417.979 176.787C420.476 176.773 423.043 176.759 426.295 176.755C425.299 190.662 422.853 225.767 422.83 226.152L422.621 229.126H447.498C448.702 229.126 450.092 228.301 450.287 226.49C450.301 226.374 450.315 226.207 450.333 225.999C450.361 225.642 450.398 225.146 450.43 224.6C450.5 223.534 450.579 222.274 450.625 221.491C450.648 221.121 450.662 220.857 450.667 220.787L450.778 219.184C451.44 209.701 452.098 200.219 452.765 190.736L453.224 184.273L453.733 177.107C453.812 176.046 453.909 174.642 453.951 173.229C454.095 168.231 453.59 161.935 448.346 157.613C444.76 154.657 439.363 153.156 432.298 153.156L432.303 153.161Z" fill="#9F93F8"/>
<path d="M233.788 227.728V218.004L218.468 227.728H204.283V206.844H211.885L260.661 175.991V175.431H208.489V154.547H263.112C268.93 154.547 273.614 155.881 277.028 158.503C280.558 161.218 282.346 165.294 282.346 170.617V187.169L250.567 207.344H285.811V227.723H233.792L233.788 227.728Z" fill="#9F93F8"/>
<path d="M263.106 155.933C268.633 155.933 272.992 157.156 276.179 159.602C279.366 162.052 280.955 165.721 280.955 170.613V186.401L245.785 208.73H284.42V226.329H235.181V215.466L218.068 226.329H205.68V208.225H212.296L262.064 176.747V174.032H209.878V155.928H263.111M263.111 153.148H207.098V176.812H256.759L211.49 205.445H202.901V229.109H218.879L219.56 228.678L232.406 220.524V229.109H287.205V205.95H255.351L282.447 188.75L283.735 187.93V170.613C283.735 164.832 281.761 160.385 277.87 157.397C274.206 154.58 269.235 153.148 263.106 153.148H263.111Z" fill="#9F93F8"/>
<path d="M304.732 223.095C297.992 223.095 292.887 221.7 289.57 218.953C286.17 216.141 284.446 211.958 284.446 206.519V167.397C284.446 161.287 286.174 156.78 289.579 154C292.947 151.253 298.353 149.914 306.104 149.914H345.684C352.425 149.914 357.53 151.308 360.851 154.056C364.252 156.868 365.975 161.051 365.975 166.489V195.438H306.131V202.211H366.438L360.383 223.095H304.742H304.732ZM344.29 177.571V170.798H306.122V177.571H344.29Z" fill="#6551F3"/>
<path d="M345.678 151.303C352.122 151.303 356.875 152.572 359.956 155.125C363.037 157.677 364.575 161.462 364.575 166.489V194.048H304.731V203.6H364.575L359.326 221.704H304.731C298.292 221.704 293.534 220.435 290.453 217.882C287.373 215.33 285.835 211.545 285.835 206.519V167.397C285.835 161.698 287.373 157.589 290.453 155.079C293.534 152.563 298.746 151.308 306.098 151.308H345.678M304.731 178.964H345.678V169.412H304.731V178.964ZM345.678 148.528H306.098C298.014 148.528 292.325 149.964 288.698 152.924C284.955 155.977 283.055 160.846 283.055 167.397V206.519C283.055 212.393 284.95 216.937 288.684 220.027C292.311 223.029 297.56 224.488 304.736 224.488H361.42L362.003 222.482L367.252 204.378L368.281 200.825H307.515V196.832H367.359V166.489C367.359 160.614 365.464 156.07 361.73 152.985C358.103 149.983 352.854 148.523 345.678 148.523V148.528ZM307.511 172.191H342.899V176.185H307.511V172.191Z" fill="#6551F3"/>
<path d="M419.489 223.095L419.591 221.608C419.618 221.209 422.25 183.398 423.167 170.724C419.178 170.724 416.218 170.742 413.351 170.761C410.427 170.779 407.412 170.793 403.302 170.798L399.416 223.095H374.729L378.616 170.798H366.399L372.454 149.914H427.674C434.406 149.914 439.511 151.308 442.837 154.056C447.618 157.998 448.076 163.877 447.937 168.56C447.896 169.927 447.808 171.261 447.724 172.387L446.756 186.011C446.089 195.503 445.426 204.995 444.764 214.487L444.653 216.053C444.648 216.118 444.634 216.382 444.606 216.767C444.56 217.545 444.481 218.805 444.412 219.871C444.375 220.408 444.342 220.899 444.315 221.251C444.268 221.849 444.166 223.095 442.869 223.095H419.479H419.489Z" fill="#6551F3"/>
<path d="M427.676 151.303C434.12 151.303 438.873 152.582 441.954 155.125C446.1 158.544 446.693 163.593 446.549 168.518C446.512 169.787 446.429 171.061 446.341 172.284C446.017 176.824 445.697 181.373 445.373 185.913C444.669 195.929 443.969 205.94 443.274 215.955C443.251 216.256 442.936 221.709 442.876 221.709H420.978C420.978 221.709 423.859 180.303 424.661 169.338C415.113 169.338 411.564 169.412 402.012 169.412L398.125 221.709H376.227L380.114 169.412H368.25L373.498 151.308H427.672M427.672 148.528H371.409L370.825 150.534L365.577 168.638L364.548 172.191H377.117L373.452 221.505L373.23 224.488H400.701L400.891 221.913L404.583 172.187C408.053 172.182 410.735 172.168 413.348 172.154C415.845 172.14 418.411 172.126 421.663 172.122C420.667 186.029 418.221 221.134 418.198 221.519L417.99 224.493H442.867C444.071 224.493 445.461 223.668 445.655 221.857C445.669 221.741 445.683 221.574 445.702 221.366C445.73 221.009 445.767 220.514 445.799 219.967C445.868 218.901 445.947 217.641 445.994 216.859C446.017 216.488 446.031 216.224 446.035 216.154L446.146 214.551C446.809 205.069 447.467 195.586 448.134 186.103L448.592 179.64L449.102 172.474C449.181 171.413 449.278 170.009 449.32 168.596C449.463 163.598 448.958 157.302 443.714 152.98C440.129 150.024 434.732 148.523 427.667 148.523L427.672 148.528Z" fill="#6551F3"/>
<path d="M229.155 223.095V213.371L213.835 223.095H199.65V202.211H207.252L256.029 171.358V170.798H203.857V149.914H258.479C264.298 149.914 268.981 151.248 272.396 153.87C275.926 156.585 277.714 160.662 277.714 165.984V182.537L245.934 202.711H281.179V223.09H229.16L229.155 223.095Z" fill="#6551F3"/>
<path d="M258.475 151.303C264.002 151.303 268.361 152.526 271.548 154.972C274.735 157.423 276.324 161.092 276.324 165.984V181.771L241.154 204.1H279.789V221.7H230.55V210.836L213.437 221.7H201.05V203.595H207.665L257.433 172.117V169.402H205.247V151.303H258.48M258.48 148.523H202.467V172.187H252.128L206.859 200.821H198.27V224.484H214.248L214.929 224.053L227.775 215.9V224.484H282.574V201.325H250.72L277.816 184.125L279.104 183.305V165.988C279.104 160.207 277.13 155.76 273.239 152.772C269.575 149.955 264.604 148.523 258.475 148.523H258.48Z" fill="#6551F3"/>
<path d="M368.274 200.82L363.642 196.188L362.298 200.82H368.274Z" fill="#6551F3"/>
<path d="M273.302 192.062L277.935 196.695L272.77 196.737L273.302 192.062Z" fill="#1D1D1B"/>
<path d="M300.098 218.462C293.358 218.462 288.253 217.068 284.936 214.32C281.535 211.509 279.812 207.325 279.812 201.887V162.765C279.812 156.654 281.54 152.147 284.945 149.367C288.313 146.62 293.719 145.281 301.469 145.281H341.05C347.79 145.281 352.895 146.676 356.217 149.423C359.617 152.235 361.341 156.418 361.341 161.857V190.806H301.497V197.578H361.804L355.749 218.462H300.107H300.098ZM339.656 172.938V166.165H301.488V172.938H339.656Z" fill="#1D1D1B"/>
<path d="M341.046 146.67C347.49 146.67 352.243 147.939 355.324 150.492C358.404 153.045 359.942 156.829 359.942 161.856V189.415H300.099V198.967H359.942L354.694 217.071H300.099C293.659 217.071 288.902 215.802 285.821 213.249C282.74 210.697 281.202 206.912 281.202 201.886V162.764C281.202 157.066 282.74 152.957 285.821 150.446C288.902 147.93 294.113 146.675 301.465 146.675H341.046M300.099 174.331H341.046V164.779H300.099V174.331ZM341.046 143.891H301.465C293.381 143.891 287.693 145.327 284.065 148.287C280.322 151.34 278.423 156.209 278.423 162.759V201.881C278.423 207.755 280.318 212.3 284.051 215.39C287.679 218.392 292.927 219.851 300.103 219.851H356.787L357.371 217.845L362.62 199.741L363.648 196.188H302.883V192.194H362.726V161.856C362.726 155.982 360.832 151.437 357.098 148.352C353.471 145.35 348.222 143.891 341.046 143.891ZM302.878 167.554H338.266V171.547H302.878V167.554Z" fill="#1D1D1B"/>
<path d="M414.857 218.462L414.959 216.975C414.987 216.577 417.618 178.765 418.536 166.091C414.547 166.091 411.587 166.109 408.719 166.128C405.796 166.146 402.78 166.16 398.671 166.165L394.784 218.462H370.097L373.984 166.165H361.768L367.823 145.281H423.043C429.774 145.281 434.879 146.676 438.205 149.423C442.986 153.365 443.445 159.244 443.306 163.927C443.264 165.294 443.176 166.628 443.093 167.754L442.125 181.378C441.458 190.87 440.795 200.363 440.133 209.855L440.021 211.42C440.017 211.485 440.003 211.749 439.975 212.134C439.929 212.912 439.85 214.172 439.781 215.238C439.744 215.775 439.711 216.266 439.683 216.618C439.637 217.216 439.535 218.462 438.238 218.462H414.848H414.857Z" fill="#1D1D1B"/>
<path d="M423.042 146.67C429.486 146.67 434.239 147.949 437.32 150.492C441.466 153.911 442.059 158.96 441.915 163.885C441.878 165.154 441.795 166.428 441.707 167.651C441.382 172.191 441.063 176.74 440.739 181.28C440.034 191.296 439.335 201.307 438.64 211.322C438.617 211.623 438.302 217.076 438.242 217.076H416.343C416.343 217.076 419.225 175.67 420.026 164.705C410.479 164.705 406.93 164.779 397.378 164.779L393.491 217.076H371.593L375.479 164.779H363.615L368.864 146.675H423.037M423.037 143.895H366.775L366.191 145.901L360.942 164.005L359.914 167.558H372.482L368.818 216.872L368.595 219.856H396.067L396.257 217.28L399.949 167.554C403.419 167.549 406.101 167.535 408.714 167.521C411.211 167.507 413.777 167.494 417.029 167.489C416.033 181.396 413.587 216.502 413.564 216.886L413.355 219.86H438.232C439.437 219.86 440.827 219.036 441.021 217.224C441.035 217.108 441.049 216.942 441.067 216.733C441.095 216.376 441.132 215.881 441.165 215.334C441.234 214.269 441.313 213.009 441.359 212.226C441.382 211.855 441.396 211.591 441.401 211.522L441.512 209.919C442.175 200.436 442.832 190.953 443.5 181.47L443.958 175.008L444.468 167.841C444.547 166.78 444.644 165.376 444.686 163.964C444.829 158.965 444.324 152.669 439.08 148.347C435.494 145.392 430.098 143.891 423.033 143.891L423.037 143.895Z" fill="#1D1D1B"/>
<path d="M224.523 218.462V208.738L209.203 218.462H195.022V197.578H202.625L251.401 166.725V166.165H199.224V145.281H253.847C259.665 145.281 264.349 146.615 267.763 149.237C271.293 151.952 273.081 156.029 273.081 161.352V177.904L241.302 198.079H276.546V218.457H224.527L224.523 218.462Z" fill="#1D1D1B"/>
<path d="M253.843 146.67C259.369 146.67 263.729 147.893 266.916 150.339C270.103 152.79 271.692 156.459 271.692 161.351V177.139L236.522 199.468H275.157V217.067H225.918V206.203L208.805 217.067H196.417V198.963H203.033L252.801 167.484V164.77H200.615V146.67H253.847M253.847 143.891H197.835V167.554H247.496L202.222 196.188H193.633V219.851H209.611L210.292 219.42L223.138 211.267V219.851H277.937V196.693H246.083L273.179 179.492L274.467 178.672V161.355C274.467 155.574 272.494 151.127 268.602 148.139C264.938 145.322 259.967 143.891 253.838 143.891H253.847Z" fill="#1D1D1B"/>
<path d="M295.467 213.829C288.726 213.829 283.621 212.435 280.304 209.688C276.904 206.876 275.181 202.692 275.181 197.254V158.132C275.181 152.021 276.909 147.514 280.314 144.734C283.681 141.987 289.088 140.648 296.838 140.648H336.419C343.159 140.648 348.264 142.043 351.586 144.79C354.986 147.602 356.709 151.785 356.709 157.224V186.173H296.866V192.946H357.173L351.118 213.829H295.476H295.467ZM335.024 168.305V161.532H296.856V168.305H335.024Z" fill="white"/>
<path d="M336.413 142.037C342.857 142.037 347.61 143.307 350.691 145.859C353.772 148.412 355.31 152.197 355.31 157.223V184.782H295.466V194.334H355.31L350.061 212.439H295.466C289.027 212.439 284.269 211.169 281.188 208.617C278.108 206.064 276.57 202.279 276.57 197.253V158.131C276.57 152.433 278.108 148.324 281.188 145.813C284.269 143.297 289.481 142.042 296.833 142.042H336.413M295.466 169.698H336.413V160.146H295.466V169.698ZM336.413 139.258H296.833C288.749 139.258 283.055 140.699 279.428 143.654C275.685 146.707 273.786 151.576 273.786 158.126V197.248C273.786 203.122 275.68 207.667 279.414 210.757C283.042 213.759 288.29 215.218 295.466 215.218H352.15L352.734 213.212L357.983 195.108L359.011 191.555H298.246V187.562H358.089V157.223C358.089 151.349 356.194 146.804 352.461 143.719C348.838 140.717 343.585 139.258 336.413 139.258ZM298.246 162.921H333.634V166.914H298.246V162.921Z" fill="#1D1D1B"/>
<path d="M410.223 213.829L410.325 212.342C410.353 211.944 412.984 174.133 413.901 161.458C409.913 161.458 406.952 161.476 404.085 161.495C401.162 161.514 398.146 161.527 394.037 161.532L390.15 213.829H365.463L369.349 161.532H357.134L363.189 140.648H418.408C425.139 140.648 430.245 142.043 433.571 144.79C438.352 148.732 438.811 154.611 438.672 159.295C438.63 160.661 438.542 161.995 438.458 163.121L437.49 176.745C436.823 186.238 436.16 195.73 435.498 205.222L435.387 206.788C435.382 206.853 435.369 207.117 435.341 207.501C435.295 208.279 435.216 209.539 435.146 210.605C435.109 211.142 435.077 211.633 435.049 211.985C435.002 212.583 434.901 213.829 433.604 213.829H410.213H410.223Z" fill="white"/>
<path d="M418.41 142.037C424.853 142.037 429.606 143.316 432.687 145.859C436.833 149.278 437.426 154.328 437.283 159.252C437.246 160.521 437.162 161.795 437.074 163.018C436.75 167.558 436.43 172.107 436.106 176.647C435.402 186.663 434.702 196.674 434.007 206.69C433.984 206.991 433.669 212.443 433.609 212.443H411.711C411.711 212.443 414.592 171.037 415.394 160.072C405.846 160.072 402.297 160.146 392.745 160.146L388.858 212.443H366.96L370.847 160.146H358.983L364.232 142.042H418.405M418.41 139.258H362.147L361.563 141.264L356.315 159.368L355.286 162.921H367.854L364.19 212.235L363.968 215.218H391.439L391.629 212.642L395.321 162.916C398.791 162.912 401.473 162.898 404.086 162.884C406.583 162.87 409.149 162.856 412.401 162.852C411.405 176.758 408.959 211.864 408.936 212.249L408.727 215.223H433.604C434.809 215.223 436.199 214.398 436.393 212.587C436.407 212.471 436.421 212.304 436.44 212.096C436.467 211.739 436.504 211.243 436.537 210.697C436.606 209.631 436.685 208.371 436.731 207.588C436.755 207.218 436.768 206.954 436.773 206.884L436.884 205.281C437.547 195.798 438.205 186.315 438.872 176.833L439.33 170.37L439.84 163.204C439.919 162.143 440.016 160.739 440.058 159.326C440.201 154.328 439.696 148.032 434.452 143.71C430.876 140.759 425.474 139.258 418.41 139.258Z" fill="#1D1D1B"/>
<path d="M219.89 213.829V204.105L204.57 213.829H190.39V192.946H197.992L246.769 162.093V161.532H194.592V140.648H249.215C255.033 140.648 259.717 141.983 263.131 144.605C266.661 147.319 268.449 151.396 268.449 156.719V173.271L236.67 193.446H271.914V213.825H219.895L219.89 213.829Z" fill="white"/>
<path d="M249.21 142.037C254.736 142.037 259.095 143.26 262.283 145.706C265.47 148.157 267.059 151.826 267.059 156.718V172.506L231.888 194.835H270.524V212.434H221.284V201.571L204.172 212.434H191.78V194.33H198.395L248.158 162.856V160.141H195.981V142.037H249.214M249.214 139.258H193.202V162.921H242.863L197.589 191.555H189V215.218H204.978L205.659 214.787L218.505 206.634V215.218H273.304V192.06H241.45L268.546 174.859L269.834 174.039V156.723C269.834 150.941 267.86 146.494 263.969 143.506C260.305 140.689 255.334 139.258 249.205 139.258H249.214Z" fill="#1D1D1B"/>
<path d="M189 215.218L193.633 219.85L195.022 218.461L193.633 215.218L190.39 213.828L189 215.218Z" fill="#1D1D1B"/>
<path d="M218.505 215.218L223.138 219.85L224.528 218.461L223.138 215.218L219.895 213.828L218.505 215.218Z" fill="#1D1D1B"/>
<path d="M193.633 219.852L198.266 224.484L199.656 223.094L198.266 219.852H193.633Z" fill="#6551F3"/>
<path d="M223.139 219.852L227.771 224.484L229.161 223.094L227.771 219.852H223.139Z" fill="#6551F3"/>
<path d="M198.266 224.484L202.898 229.117L205.015 226.944L202.898 224.484H198.266Z" fill="#9F93F8"/>
<path d="M227.775 224.484L232.408 229.117L234.525 226.944L232.408 224.484H227.775Z" fill="#9F93F8"/>
<path d="M363.971 215.219L368.603 219.851L370.104 219.282L369.933 215.219H363.971Z" fill="#1D1D1B"/>
<path d="M368.605 219.852L373.238 224.484H375.272V219.852H368.605Z" fill="#6551F3"/>
<path d="M373.236 224.484L377.869 229.117H379.787L380.023 224.484H373.236Z" fill="#9F93F8"/>
<path d="M408.735 215.219L413.368 219.851H415.054L414.693 215.219H408.735Z" fill="#1D1D1B"/>
<path d="M413.369 219.852L418.001 224.484H420.98V221.705V219.852H413.369Z" fill="#6551F3"/>
<path d="M418.001 224.484H424.033L422.634 229.117L418.001 224.484Z" fill="#9F93F8"/>
<path d="M359.012 191.555L363.645 196.187H357.164L359.012 191.555Z" fill="#1D1D1B"/>
<path d="M193.202 162.922L197.835 167.554H199.655L199.396 162.922H193.202Z" fill="#1D1D1B"/>
<path d="M197.834 167.555L202.467 172.187H203.76L204.478 167.555H197.834Z" fill="#6551F3"/>
<path d="M202.467 172.188L207.099 176.82H209.147V172.188H202.467Z" fill="#9F93F8"/>
</g>
</g>
<path d="M342.443 244.546C346.454 244.546 349.278 247.666 349.278 252.897C349.278 258.097 346.454 261.247 342.443 261.247C339.946 261.247 338.252 259.999 337.212 258.246V260.891H334.627V239.375H337.212V247.547C338.252 245.794 339.946 244.546 342.443 244.546ZM341.908 259.048C344.85 259.048 346.633 256.492 346.633 252.897C346.633 249.301 344.85 246.715 341.908 246.715C338.966 246.715 337.064 249.271 337.064 252.897C337.064 256.522 338.966 259.048 341.908 259.048ZM351.655 264.665H352.874C354.33 264.665 355.192 264.516 355.756 263.001L356.559 260.891L350.467 244.902H353.23L357.837 257.562L362.443 244.902H365.207L358.074 263.565C357.361 265.467 356.291 266.834 353.468 266.834H351.655V264.665ZM385.083 260.891C384.994 260.088 384.934 259.583 384.905 258.573C383.746 260.237 381.873 261.247 379.377 261.247C376.851 261.247 373.731 260.177 373.731 256.671C373.731 253.55 376.197 251.53 381.814 251.53H384.905V251.232C384.905 249.301 384.786 246.656 380.982 246.656C378.04 246.656 377.029 248.261 376.732 249.954H374.147C374.533 246.804 376.673 244.546 381.101 244.546C386.272 244.546 387.49 247.637 387.49 250.935V257.533C387.49 258.662 387.549 259.94 387.668 260.891H385.083ZM380.001 259.137C382.468 259.137 384.964 257.949 384.964 253.491H382.081C378.159 253.491 376.376 254.472 376.376 256.433C376.376 258.186 377.772 259.137 380.001 259.137ZM391.16 239.375H394.37V242.525H391.16V239.375ZM391.457 244.902H394.043V260.891H391.457V244.902ZM397.864 239.375H400.45V252.272L407.582 244.902H410.821L404.729 251.173L411.386 260.891H408.354L402.976 253.015L400.45 255.601V260.891H397.864V239.375ZM413.536 239.375H416.745V242.525H413.536V239.375ZM413.833 244.902H416.418V260.891H413.833V244.902ZM434.552 239.375V260.891H431.966V258.246C430.926 259.999 429.232 261.247 426.706 261.247C422.724 261.247 419.901 258.097 419.901 252.897C419.901 247.666 422.724 244.546 426.706 244.546C429.232 244.546 430.926 245.794 431.966 247.547V239.375H434.552ZM427.271 259.048C430.183 259.048 432.115 256.522 432.115 252.897C432.115 249.271 430.183 246.715 427.271 246.715C424.329 246.715 422.546 249.301 422.546 252.897C422.546 256.492 424.329 259.048 427.271 259.048ZM444.918 261.247C440.252 261.247 437.399 258.008 437.399 252.897C437.399 247.785 440.252 244.546 444.918 244.546C449.554 244.546 452.436 247.785 452.436 252.897C452.436 258.008 449.554 261.247 444.918 261.247ZM444.918 259.048C447.979 259.048 449.791 256.76 449.791 252.897C449.791 249.033 447.979 246.715 444.918 246.715C441.857 246.715 440.044 249.033 440.044 252.897C440.044 256.76 441.857 259.048 444.918 259.048Z" fill="white" fill-opacity="0.7"/>
</g>
<path d="M727.272 175.912H712.04V217H706.216V175.912H690.92V170.664H727.272V175.912ZM750.37 181.8C758.626 181.8 762.21 187.176 762.21 194.664V217H756.642V196.008C756.642 190.568 754.786 186.472 748.898 186.472C742.306 186.472 739.106 191.592 739.106 198.312V217H733.538V170.664H739.106V188.008C741.666 183.336 745.954 181.8 750.37 181.8ZM784.319 181.8C795.007 181.8 801.023 189.736 800.447 201.32H773.503C774.015 208.232 777.855 213.032 784.447 213.032C789.567 213.032 793.343 210.152 794.431 205.8H800.127C798.591 213.608 792.447 217.768 784.447 217.768C773.951 217.768 767.743 210.536 767.743 199.784C767.743 189.032 774.143 181.8 784.319 181.8ZM794.559 197.032C794.431 191.848 791.231 186.472 784.127 186.472C777.855 186.472 774.335 190.696 773.567 197.032H794.559ZM822.413 170.664H829.325V177.448H822.413V170.664ZM823.053 182.568H828.621V217H823.053V182.568ZM853.808 181.8C862.064 181.8 865.648 187.176 865.648 194.664V217H860.08V196.008C860.08 190.568 858.224 186.472 852.336 186.472C845.744 186.472 842.544 191.592 842.544 198.312V217H836.976V182.568H842.544V188.008C845.104 183.336 849.392 181.8 853.808 181.8ZM872.959 196.584H892.799V201.576H872.959V196.584ZM923.638 217C923.446 215.272 923.318 214.184 923.254 212.008C920.758 215.592 916.726 217.768 911.35 217.768C905.91 217.768 899.19 215.464 899.19 207.912C899.19 201.192 904.502 196.84 916.598 196.84H923.254V196.2C923.254 192.04 922.998 186.344 914.806 186.344C908.47 186.344 906.294 189.8 905.654 193.448H900.086C900.918 186.664 905.526 181.8 915.062 181.8C926.198 181.8 928.822 188.456 928.822 195.56V209.768C928.822 212.2 928.95 214.952 929.206 217H923.638ZM912.694 213.224C918.006 213.224 923.382 210.664 923.382 201.064H917.174C908.726 201.064 904.885 203.176 904.885 207.4C904.885 211.176 907.894 213.224 912.694 213.224ZM953.933 181.8C962.573 181.8 968.653 188.52 968.653 199.784C968.653 210.984 962.573 217.768 953.933 217.768C948.557 217.768 944.909 215.08 942.669 211.304V229.8H937.101V182.568H942.669V188.264C944.909 184.488 948.557 181.8 953.933 181.8ZM952.781 213.032C959.117 213.032 962.957 207.528 962.957 199.784C962.957 192.04 959.117 186.472 952.781 186.472C946.445 186.472 942.349 191.976 942.349 199.784C942.349 207.592 946.445 213.032 952.781 213.032ZM991.745 181.8C1000.39 181.8 1006.47 188.52 1006.47 199.784C1006.47 210.984 1000.39 217.768 991.745 217.768C986.369 217.768 982.721 215.08 980.481 211.304V229.8H974.913V182.568H980.481V188.264C982.721 184.488 986.369 181.8 991.745 181.8ZM990.593 213.032C996.929 213.032 1000.77 207.528 1000.77 199.784C1000.77 192.04 996.929 186.472 990.593 186.472C984.257 186.472 980.161 191.976 980.161 199.784C980.161 207.592 984.257 213.032 990.593 213.032ZM1030.14 179.88C1030.14 174.44 1031.93 170.664 1039.42 170.664H1043.2V175.208H1040.96C1036.73 175.208 1035.71 176.232 1035.71 180.072V182.568H1042.81V187.112H1035.71V217H1030.14V187.112H1025.15V182.568H1030.14V179.88ZM1055.23 170.664V177.448H1048.32V170.664H1055.23ZM1048.96 182.568H1054.53V217H1048.96V182.568ZM1077.76 182.184C1078.53 182.184 1079.23 182.248 1079.94 182.376V187.944C1079.17 187.816 1078.27 187.752 1077.51 187.752C1068.55 187.752 1068.42 196.072 1068.42 201.192V217H1062.85V182.568H1068.35V188.136C1070.27 184.36 1073.35 182.184 1077.76 182.184ZM1099.63 181.8C1110.32 181.8 1116.34 189.736 1115.76 201.32H1088.82C1089.33 208.232 1093.17 213.032 1099.76 213.032C1104.88 213.032 1108.66 210.152 1109.74 205.8H1115.44C1113.9 213.608 1107.76 217.768 1099.76 217.768C1089.26 217.768 1083.06 210.536 1083.06 199.784C1083.06 189.032 1089.46 181.8 1099.63 181.8ZM1109.87 197.032C1109.74 191.848 1106.54 186.472 1099.44 186.472C1093.17 186.472 1089.65 190.696 1088.88 197.032H1109.87ZM1118.97 182.568H1124.92L1131.83 208.552L1139.51 182.568H1144.89L1152.63 208.552L1159.55 182.568H1165.43L1155.39 217H1150.07L1142.2 190.44L1134.39 217H1129.02L1118.97 182.568ZM1193.08 217C1192.88 215.272 1192.76 214.184 1192.69 212.008C1190.2 215.592 1186.16 217.768 1180.79 217.768C1175.35 217.768 1168.63 215.464 1168.63 207.912C1168.63 201.192 1173.94 196.84 1186.04 196.84H1192.69V196.2C1192.69 192.04 1192.44 186.344 1184.24 186.344C1177.91 186.344 1175.73 189.8 1175.09 193.448H1169.52C1170.36 186.664 1174.96 181.8 1184.5 181.8C1195.64 181.8 1198.26 188.456 1198.26 195.56V209.768C1198.26 212.2 1198.39 214.952 1198.64 217H1193.08ZM1182.13 213.224C1187.44 213.224 1192.82 210.664 1192.82 201.064H1186.61C1178.16 201.064 1174.32 203.176 1174.32 207.4C1174.32 211.176 1177.33 213.224 1182.13 213.224ZM1206.67 170.664H1212.24V217H1206.67V170.664ZM1221.17 170.664H1226.74V217H1221.17V170.664ZM1263.21 175.208C1258.98 175.208 1257.96 176.232 1257.96 180.072V182.568H1265.06V187.112H1257.96V217H1252.39V187.112H1247.4V182.568H1252.39V179.88C1252.39 174.44 1254.18 170.664 1261.67 170.664H1265.45V175.208H1263.21ZM1283.31 217.768C1273.26 217.768 1267.12 210.792 1267.12 199.784C1267.12 188.776 1273.26 181.8 1283.31 181.8C1293.29 181.8 1299.5 188.776 1299.5 199.784C1299.5 210.792 1293.29 217.768 1283.31 217.768ZM1283.31 213.032C1289.9 213.032 1293.81 208.104 1293.81 199.784C1293.81 191.464 1289.9 186.472 1283.31 186.472C1276.72 186.472 1272.81 191.464 1272.81 199.784C1272.81 208.104 1276.72 213.032 1283.31 213.032ZM1320.51 182.184C1321.28 182.184 1321.98 182.248 1322.69 182.376V187.944C1321.92 187.816 1321.02 187.752 1320.26 187.752C1311.3 187.752 1311.17 196.072 1311.17 201.192V217H1305.6V182.568H1311.1V188.136C1313.02 184.36 1316.1 182.184 1320.51 182.184ZM1359.5 181.8C1368.14 181.8 1374.22 188.52 1374.22 199.784C1374.22 210.984 1368.14 217.768 1359.5 217.768C1354.12 217.768 1350.47 215.08 1348.23 211.304V229.8H1342.66V182.568H1348.23V188.264C1350.47 184.488 1354.12 181.8 1359.5 181.8ZM1358.34 213.032C1364.68 213.032 1368.52 207.528 1368.52 199.784C1368.52 192.04 1364.68 186.472 1358.34 186.472C1352.01 186.472 1347.91 191.976 1347.91 199.784C1347.91 207.592 1352.01 213.032 1358.34 213.032ZM1395.88 181.8C1406.57 181.8 1412.59 189.736 1412.01 201.32H1385.07C1385.58 208.232 1389.42 213.032 1396.01 213.032C1401.13 213.032 1404.91 210.152 1405.99 205.8H1411.69C1410.15 213.608 1404.01 217.768 1396.01 217.768C1385.51 217.768 1379.31 210.536 1379.31 199.784C1379.31 189.032 1385.71 181.8 1395.88 181.8ZM1406.12 197.032C1405.99 191.848 1402.79 186.472 1395.69 186.472C1389.42 186.472 1385.9 190.696 1385.13 197.032H1406.12ZM1441.26 217C1441.07 215.272 1440.94 214.184 1440.88 212.008C1438.38 215.592 1434.35 217.768 1428.97 217.768C1423.53 217.768 1416.81 215.464 1416.81 207.912C1416.81 201.192 1422.13 196.84 1434.22 196.84H1440.88V196.2C1440.88 192.04 1440.62 186.344 1432.43 186.344C1426.09 186.344 1423.92 189.8 1423.28 193.448H1417.71C1418.54 186.664 1423.15 181.8 1432.69 181.8C1443.82 181.8 1446.45 188.456 1446.45 195.56V209.768C1446.45 212.2 1446.57 214.952 1446.83 217H1441.26ZM1430.32 213.224C1435.63 213.224 1441.01 210.664 1441.01 201.064H1434.8C1426.35 201.064 1422.51 203.176 1422.51 207.4C1422.51 211.176 1425.52 213.224 1430.32 213.224ZM1468.62 217.768C1458.32 217.768 1452.37 210.536 1452.37 199.784C1452.37 189.032 1458.32 181.8 1468.62 181.8C1476.5 181.8 1482 186.024 1483.6 193.768H1477.84C1476.69 189.352 1473.55 186.472 1468.43 186.472C1461.26 186.472 1458.06 191.976 1458.06 199.784C1458.06 207.528 1461.26 213.032 1468.43 213.032C1473.74 213.032 1476.69 210.152 1477.84 205.8H1483.6C1482 213.544 1476.5 217.768 1468.62 217.768ZM1504.44 181.8C1515.13 181.8 1521.15 189.736 1520.57 201.32H1493.63C1494.14 208.232 1497.98 213.032 1504.57 213.032C1509.69 213.032 1513.47 210.152 1514.56 205.8H1520.25C1518.72 213.608 1512.57 217.768 1504.57 217.768C1494.08 217.768 1487.87 210.536 1487.87 199.784C1487.87 189.032 1494.27 181.8 1504.44 181.8ZM1514.68 197.032C1514.56 191.848 1511.36 186.472 1504.25 186.472C1497.98 186.472 1494.46 190.696 1493.69 197.032H1514.68ZM1556.81 217.768C1546.76 217.768 1540.62 210.792 1540.62 199.784C1540.62 188.776 1546.76 181.8 1556.81 181.8C1566.79 181.8 1573 188.776 1573 199.784C1573 210.792 1566.79 217.768 1556.81 217.768ZM1556.81 213.032C1563.4 213.032 1567.31 208.104 1567.31 199.784C1567.31 191.464 1563.4 186.472 1556.81 186.472C1550.22 186.472 1546.31 191.464 1546.31 199.784C1546.31 208.104 1550.22 213.032 1556.81 213.032ZM1591.58 175.208C1587.36 175.208 1586.34 176.232 1586.34 180.072V182.568H1593.44V187.112H1586.34V217H1580.77V187.112H1575.78V182.568H1580.77V179.88C1580.77 174.44 1582.56 170.664 1590.05 170.664H1593.82V175.208H1591.58ZM1650.86 181.8C1660.21 181.8 1662.38 189.224 1662.38 195.496V217H1656.81V195.432C1656.81 191.656 1655.79 186.472 1649.45 186.472C1642.61 186.472 1640.49 192.488 1640.49 197.736V217H1634.93V195.944C1634.93 191.784 1634.03 186.472 1627.69 186.472C1620.91 186.472 1618.61 192.488 1618.61 198.632V217H1613.04V182.568H1618.61V188.2C1620.72 184.04 1624.24 181.8 1629.29 181.8C1635.18 181.8 1638 184.872 1639.28 188.52C1641.77 184.232 1645.49 181.8 1650.86 181.8ZM1669.91 170.664H1676.83V177.448H1669.91V170.664ZM1670.55 182.568H1676.12V217H1670.55V182.568ZM1701.31 181.8C1709.56 181.8 1713.15 187.176 1713.15 194.664V217H1707.58V196.008C1707.58 190.568 1705.72 186.472 1699.84 186.472C1693.24 186.472 1690.04 191.592 1690.04 198.312V217H1684.48V182.568H1690.04V188.008C1692.6 183.336 1696.89 181.8 1701.31 181.8ZM1750.36 170.664V217H1744.79V211.304C1742.55 215.08 1738.9 217.768 1733.46 217.768C1724.89 217.768 1718.81 210.984 1718.81 199.784C1718.81 188.52 1724.89 181.8 1733.46 181.8C1738.9 181.8 1742.55 184.488 1744.79 188.264V170.664H1750.36ZM1734.68 213.032C1740.95 213.032 1745.11 207.592 1745.11 199.784C1745.11 191.976 1740.95 186.472 1734.68 186.472C1728.34 186.472 1724.5 192.04 1724.5 199.784C1724.5 207.528 1728.34 213.032 1734.68 213.032Z" fill="white"/>
<path d="M705.896 318.208C701.672 318.208 700.648 319.232 700.648 323.072V325.568H707.752V330.112H700.648V360H695.08V330.112H690.088V325.568H695.08V322.88C695.08 317.44 696.872 313.664 704.36 313.664H708.136V318.208H705.896ZM725.998 360.768C715.95 360.768 709.806 353.792 709.806 342.784C709.806 331.776 715.95 324.8 725.998 324.8C735.982 324.8 742.19 331.776 742.19 342.784C742.19 353.792 735.982 360.768 725.998 360.768ZM725.998 356.032C732.59 356.032 736.494 351.104 736.494 342.784C736.494 334.464 732.59 329.472 725.998 329.472C719.406 329.472 715.502 334.464 715.502 342.784C715.502 351.104 719.406 356.032 725.998 356.032ZM763.2 325.184C763.968 325.184 764.672 325.248 765.376 325.376V330.944C764.608 330.816 763.712 330.752 762.944 330.752C753.984 330.752 753.856 339.072 753.856 344.192V360H748.288V325.568H753.792V331.136C755.712 327.36 758.784 325.184 763.2 325.184Z" fill="white"/>
<rect x="810" y="283" width="104" height="104" rx="27.7333" fill="#80BD00"/>
<path d="M859.847 307.524C860.501 307.156 861.24 307 862 307C862.76 307 863.504 307.156 864.153 307.524L884.847 319.396C886.186 320.165 887 321.61 887 323.15V346.85C887 348.39 886.186 349.83 884.847 350.604L864.153 362.433C863.492 362.813 862.766 363 862 363C861.244 363 860.508 362.813 859.847 362.433L852.905 358.373C851.875 357.8 852.39 357.618 852.729 357.501C854.105 357.026 854.381 356.93 855.849 356.104C856.002 356.019 856.218 356.012 856.376 356.104L861.692 359.246C861.886 359.351 862.13 359.351 862.308 359.246L883.002 347.418C883.195 347.309 883.309 347.077 883.309 346.85V323.15C883.309 322.918 883.155 322.7 882.958 322.582L862.308 310.754C862.116 310.643 861.886 310.643 861.692 310.754L841.042 322.582C840.842 322.696 840.691 322.925 840.691 323.15V346.85C840.691 347.077 840.844 347.267 841.042 347.374L846.666 350.648C849.738 352.173 851.631 350.358 851.631 348.553V325.157C851.631 324.827 851.914 324.59 852.246 324.59H854.838C855.165 324.59 855.453 324.827 855.453 325.157V348.553C855.453 352.626 853.234 354.969 849.346 354.969L849.293 354.969C848.122 354.969 847.143 354.969 844.557 353.703L839.153 350.604C837.814 349.836 837 348.39 837 346.85V323.15C837 321.61 837.814 320.162 839.153 319.396L859.847 307.524Z" fill="#010024"/>
<path d="M858.134 330.57C858.134 326.427 861.643 323.936 867.536 323.936C874.158 323.936 877.446 326.239 877.861 331.138C877.877 331.307 877.798 331.448 877.685 331.574C877.571 331.692 877.411 331.792 877.246 331.792H874.566C874.288 331.792 874.051 331.579 873.995 331.312C873.352 328.468 871.782 327.558 867.536 327.558C862.782 327.558 862.264 329.207 862.264 330.439C862.264 331.932 862.875 332.345 869.294 333.189C875.645 334.023 878.696 335.214 878.696 339.649C878.696 344.123 874.919 346.676 868.371 346.676C859.325 346.676 857.431 342.585 857.431 339.125C857.431 338.796 857.715 338.514 858.046 338.514H860.726C861.025 338.514 861.25 338.748 861.297 339.038C861.7 341.741 862.902 343.097 868.371 343.097C872.724 343.097 874.566 342.118 874.566 339.823C874.566 338.5 874.039 337.513 867.272 336.855C861.617 336.299 858.134 335.065 858.134 330.57Z" fill="#010024"/>
<path d="M980.624 313.664V360H973.072L949.008 321.216V360H943.184V313.664H950.8L974.8 352.384V313.664H980.624ZM1004.37 360.768C994.325 360.768 988.181 353.792 988.181 342.784C988.181 331.776 994.325 324.8 1004.37 324.8C1014.36 324.8 1020.56 331.776 1020.56 342.784C1020.56 353.792 1014.36 360.768 1004.37 360.768ZM1004.37 356.032C1010.96 356.032 1014.87 351.104 1014.87 342.784C1014.87 334.464 1010.96 329.472 1004.37 329.472C997.781 329.472 993.877 334.464 993.877 342.784C993.877 351.104 997.781 356.032 1004.37 356.032ZM1057.17 313.664V360H1051.61V354.304C1049.37 358.08 1045.72 360.768 1040.28 360.768C1031.7 360.768 1025.62 353.984 1025.62 342.784C1025.62 331.52 1031.7 324.8 1040.28 324.8C1045.72 324.8 1049.37 327.488 1051.61 331.264V313.664H1057.17ZM1041.49 356.032C1047.77 356.032 1051.93 350.592 1051.93 342.784C1051.93 334.976 1047.77 329.472 1041.49 329.472C1035.16 329.472 1031.32 335.04 1031.32 342.784C1031.32 350.528 1035.16 356.032 1041.49 356.032ZM1079.88 324.8C1090.57 324.8 1096.59 332.736 1096.01 344.32H1069.07C1069.58 351.232 1073.42 356.032 1080.01 356.032C1085.13 356.032 1088.91 353.152 1089.99 348.8H1095.69C1094.15 356.608 1088.01 360.768 1080.01 360.768C1069.51 360.768 1063.31 353.536 1063.31 342.784C1063.31 332.032 1069.71 324.8 1079.88 324.8ZM1090.12 340.032C1089.99 334.848 1086.79 329.472 1079.69 329.472C1073.42 329.472 1069.9 333.696 1069.13 340.032H1090.12ZM1101.9 352.704H1109.07V360H1101.9V352.704ZM1115.76 313.664H1122.61V320.448H1115.76V313.664ZM1110.7 368.256H1111.79C1114.8 368.256 1116.4 368 1116.4 364.16V325.568H1121.97V364.864C1121.97 370.944 1118.7 372.8 1113.2 372.8H1110.7V368.256ZM1143.77 360.768C1133.92 360.768 1128.86 355.456 1128.22 348.928H1133.79C1134.75 352.576 1137.18 356.16 1143.84 356.16C1149.98 356.16 1152.16 353.088 1152.16 350.528C1152.16 346.688 1147.61 345.728 1142.62 344.768C1137.24 343.68 1128.99 342.08 1128.99 334.592C1128.99 328.32 1135 324.8 1142.49 324.8C1151.9 324.8 1156.38 330.24 1157.02 335.296H1151.39C1150.62 332.8 1148.7 329.408 1142.3 329.408C1136.99 329.408 1134.62 331.776 1134.62 334.4C1134.62 338.112 1139.48 339.136 1144.6 340.224C1151.2 341.568 1157.79 343.296 1157.79 349.952C1157.79 355.328 1153.69 360.768 1143.77 360.768Z" fill="white"/>
<path d="M584.592 342.792L590.016 338.472C591.744 337.096 592.608 335.656 592.608 334.152V333.912C592.608 333.304 592.384 332.792 591.936 332.376C591.52 331.928 590.896 331.704 590.064 331.704C589.232 331.704 588.56 331.944 588.048 332.424C587.568 332.872 587.168 333.512 586.848 334.344L584.304 333.288C584.656 332.2 585.312 331.256 586.272 330.456C587.264 329.624 588.608 329.208 590.304 329.208C592.128 329.208 593.488 329.672 594.384 330.6C595.312 331.496 595.776 332.584 595.776 333.864C595.776 335.208 595.344 336.392 594.48 337.416C593.648 338.44 592.64 339.416 591.456 340.344L587.76 343.176H596.4V345.576H584.592V342.792Z" fill="#6551F3"/>
<path d="M590.064 494.864C588.4 494.864 587.104 494.528 586.176 493.856C585.248 493.152 584.528 492.352 584.016 491.456L586.272 489.872C586.656 490.608 587.12 491.216 587.664 491.696C588.24 492.176 589.04 492.416 590.064 492.416C590.992 492.416 591.712 492.208 592.224 491.792C592.768 491.344 593.04 490.752 593.04 490.016V489.68C593.04 488.944 592.752 488.4 592.176 488.048C591.6 487.664 590.784 487.472 589.728 487.472H588.048V485.072H589.728C590.752 485.072 591.504 484.88 591.984 484.496C592.496 484.112 592.752 483.648 592.752 483.104V482.768C592.752 482.128 592.512 481.616 592.032 481.232C591.552 480.848 590.896 480.656 590.064 480.656C588.56 480.656 587.408 481.312 586.608 482.624L584.592 480.992C585.168 480.16 585.888 479.488 586.752 478.976C587.616 478.464 588.752 478.208 590.16 478.208C591.888 478.208 593.264 478.592 594.288 479.36C595.312 480.096 595.824 481.104 595.824 482.384C595.824 483.44 595.488 484.288 594.816 484.928C594.176 485.536 593.392 485.92 592.464 486.08V486.272C593.488 486.432 594.352 486.832 595.056 487.472C595.76 488.112 596.112 488.992 596.112 490.112C596.112 491.552 595.552 492.704 594.432 493.568C593.344 494.432 591.888 494.864 590.064 494.864Z" fill="#6551F3"/>
<path d="M585.072 194.176H589.584V183.136L585.312 185.296L584.16 183.184L589.344 180.496H592.608V194.176H596.592V196.576H585.072V194.176Z" fill="#6551F3"/>
<path d="M721.256 514.296L734.76 500.856H694.12V468.664H699.432V495.928H734.76L721.256 482.424L724.84 478.84L744.36 498.36L724.84 517.88L721.256 514.296Z" fill="white"/>
<path d="M1764.2 519C1764.01 517.272 1763.88 516.184 1763.82 514.008C1761.32 517.592 1757.29 519.768 1751.91 519.768C1746.47 519.768 1739.75 517.464 1739.75 509.912C1739.75 503.192 1745.06 498.84 1757.16 498.84H1763.82V498.2C1763.82 494.04 1763.56 488.344 1755.37 488.344C1749.03 488.344 1746.86 491.8 1746.22 495.448H1740.65C1741.48 488.664 1746.09 483.8 1755.62 483.8C1766.76 483.8 1769.38 490.456 1769.38 497.56V511.768C1769.38 514.2 1769.51 516.952 1769.77 519H1764.2ZM1753.26 515.224C1758.57 515.224 1763.94 512.664 1763.94 503.064H1757.74C1749.29 503.064 1745.45 505.176 1745.45 509.4C1745.45 513.176 1748.46 515.224 1753.26 515.224ZM1777.29 472.664H1784.2V479.448H1777.29V472.664ZM1777.93 484.568H1783.5V519H1777.93V484.568ZM1791.73 472.664H1797.29V500.44L1812.65 484.568H1819.63L1806.51 498.072L1820.85 519H1814.32L1802.73 502.04L1797.29 507.608V519H1791.73V472.664ZM1825.48 472.664H1832.39V479.448H1825.48V472.664ZM1826.12 484.568H1831.68V519H1826.12V484.568ZM1870.74 472.664V519H1865.17V513.304C1862.93 517.08 1859.28 519.768 1853.84 519.768C1845.26 519.768 1839.18 512.984 1839.18 501.784C1839.18 490.52 1845.26 483.8 1853.84 483.8C1859.28 483.8 1862.93 486.488 1865.17 490.264V472.664H1870.74ZM1855.06 515.032C1861.33 515.032 1865.49 509.592 1865.49 501.784C1865.49 493.976 1861.33 488.472 1855.06 488.472C1848.72 488.472 1844.88 494.04 1844.88 501.784C1844.88 509.528 1848.72 515.032 1855.06 515.032ZM1893.06 519.768C1883.01 519.768 1876.87 512.792 1876.87 501.784C1876.87 490.776 1883.01 483.8 1893.06 483.8C1903.04 483.8 1909.25 490.776 1909.25 501.784C1909.25 512.792 1903.04 519.768 1893.06 519.768ZM1893.06 515.032C1899.65 515.032 1903.56 510.104 1903.56 501.784C1903.56 493.464 1899.65 488.472 1893.06 488.472C1886.47 488.472 1882.56 493.464 1882.56 501.784C1882.56 510.104 1886.47 515.032 1893.06 515.032ZM1914.27 511.704H1921.44V519H1914.27V511.704ZM1958.3 472.664V519H1952.73V513.304C1950.49 517.08 1946.84 519.768 1941.4 519.768C1932.83 519.768 1926.75 512.984 1926.75 501.784C1926.75 490.52 1932.83 483.8 1941.4 483.8C1946.84 483.8 1950.49 486.488 1952.73 490.264V472.664H1958.3ZM1942.62 515.032C1948.89 515.032 1953.05 509.592 1953.05 501.784C1953.05 493.976 1948.89 488.472 1942.62 488.472C1936.28 488.472 1932.44 494.04 1932.44 501.784C1932.44 509.528 1936.28 515.032 1942.62 515.032ZM1981.01 483.8C1991.69 483.8 1997.71 491.736 1997.13 503.32H1970.19C1970.7 510.232 1974.54 515.032 1981.13 515.032C1986.25 515.032 1990.03 512.152 1991.12 507.8H1996.81C1995.28 515.608 1989.13 519.768 1981.13 519.768C1970.64 519.768 1964.43 512.536 1964.43 501.784C1964.43 491.032 1970.83 483.8 1981.01 483.8ZM1991.25 499.032C1991.12 493.848 1987.92 488.472 1980.81 488.472C1974.54 488.472 1971.02 492.696 1970.25 499.032H1991.25ZM2000.02 484.568H2006.1L2015.7 512.152L2025.3 484.568H2031.32L2018.58 519H2012.76L2000.02 484.568ZM2050.41 472.664H2056.17L2037.48 519H2031.72L2050.41 472.664ZM2084.21 514.264V519H2056.37V514.328L2076.79 489.24H2057.65V484.568H2083.63V489.176L2063.28 514.264H2084.21ZM2104.69 483.8C2115.38 483.8 2121.4 491.736 2120.82 503.32H2093.88C2094.39 510.232 2098.23 515.032 2104.82 515.032C2109.94 515.032 2113.72 512.152 2114.81 507.8H2120.5C2118.97 515.608 2112.82 519.768 2104.82 519.768C2094.33 519.768 2088.12 512.536 2088.12 501.784C2088.12 491.032 2094.52 483.8 2104.69 483.8ZM2114.93 499.032C2114.81 493.848 2111.61 488.472 2104.5 488.472C2098.23 488.472 2094.71 492.696 2093.94 499.032H2114.93ZM2144.37 483.8C2152.63 483.8 2156.21 489.176 2156.21 496.664V519H2150.64V498.008C2150.64 492.568 2148.79 488.472 2142.9 488.472C2136.31 488.472 2133.11 493.592 2133.11 500.312V519H2127.54V484.568H2133.11V490.008C2135.67 485.336 2139.95 483.8 2144.37 483.8Z" fill="white" fill-opacity="0.8"/>
<g clip-path="url(#clip2_33983_88202)">
<rect x="32.5" y="32.5" width="2215" height="625" rx="31.5" fill="#141031" stroke="#3D3192"/>
<g opacity="0.4" filter="url(#filter1_f_33983_88202)">
<ellipse cx="1140" cy="345" rx="506" ry="262" fill="#6551F3"/>
</g>
<g opacity="0.3">
<circle cx="1139.52" cy="344.515" r="119.145" fill="white" fill-opacity="0.01" stroke="#A397F8" stroke-width="0.614783"/>
<circle cx="1139.51" cy="344.506" r="238.905" fill="white" fill-opacity="0.01"/>
<circle cx="1139.51" cy="344.506" r="238.597" stroke="#A397F8" stroke-opacity="0.9" stroke-width="0.614783"/>
<circle cx="1139.54" cy="344.537" r="358.357" fill="white" fill-opacity="0.01"/>
<circle cx="1139.54" cy="344.537" r="358.05" stroke="#A397F8" stroke-opacity="0.8" stroke-width="0.614783"/>
<circle cx="1139.53" cy="344.528" r="477.81" fill="white" fill-opacity="0.01"/>
<circle cx="1139.53" cy="344.528" r="477.502" stroke="#A397F8" stroke-opacity="0.7" stroke-width="0.614783"/>
<circle cx="1139.52" cy="344.527" r="597.262" fill="white" fill-opacity="0.01"/>
<circle cx="1139.52" cy="344.527" r="596.954" stroke="#A397F8" stroke-opacity="0.6" stroke-width="0.614783"/>
<circle cx="1139.52" cy="344.519" r="716.714" fill="white" fill-opacity="0.01"/>
<circle cx="1139.52" cy="344.519" r="716.407" stroke="#A397F8" stroke-opacity="0.5" stroke-width="0.614783"/>
<circle cx="1139.51" cy="344.51" r="836.167" fill="white" fill-opacity="0.01"/>
<circle cx="1139.51" cy="344.51" r="835.859" stroke="#A397F8" stroke-opacity="0.4" stroke-width="0.614783"/>
<circle cx="1139.54" cy="344.541" r="955.619" fill="white" fill-opacity="0.01"/>
<circle cx="1139.54" cy="344.541" r="955.312" stroke="#A397F8" stroke-opacity="0.3" stroke-width="0.614783"/>
<circle cx="1139.53" cy="344.532" r="1075.07" fill="white" fill-opacity="0.01"/>
<circle cx="1139.53" cy="344.532" r="1074.76" stroke="#A397F8" stroke-opacity="0.2" stroke-width="0.614783"/>
<circle cx="1139.52" cy="344.524" r="1194.52" fill="white" fill-opacity="0.01"/>
<circle cx="1139.52" cy="344.524" r="1194.22" stroke="#A397F8" stroke-opacity="0.1" stroke-width="0.614783"/>
</g>
<line x1="470" y1="199" x2="470" y2="142" stroke="white" stroke-opacity="0.23" stroke-width="2"/>
</g>
<path d="M217.185 146.453H159V166.951H217.185V146.453Z" fill="#6551F3"/>
<path d="M159 186.174C175.553 171.234 200.632 171.234 217.185 186.174V211.719L217.173 211.731L188.092 182.302L159.011 211.731L159 211.719V186.174Z" fill="#6551F3"/>
<path d="M285.483 191.971H284.236C283.057 191.971 282.157 191.763 281.533 191.277C280.91 190.791 280.563 189.819 280.563 188.292V175.867C280.563 171.563 279.246 168.093 276.683 165.385C274.119 162.678 269.892 161.359 264.071 161.359C258.804 161.359 254.716 162.539 251.875 164.83C249.034 167.19 247.301 170.383 246.817 174.479H256.033C256.656 170.383 259.29 168.37 263.794 168.37C266.496 168.37 268.437 169.064 269.476 170.453C270.515 171.841 271.07 173.785 271.07 176.283V177.325H263.586C257.696 177.325 253.192 178.366 250.143 180.518C247.093 182.67 245.569 185.585 245.569 189.264C245.569 193.012 246.955 195.789 249.727 197.594C252.499 199.468 255.756 200.37 259.567 200.37C265.457 200.37 269.822 198.288 272.525 194.054C273.148 196.067 274.188 197.524 275.643 198.288C277.098 199.121 279.246 199.537 282.226 199.537H285.483V191.971ZM261.715 193.36C259.636 193.36 258.042 192.874 256.934 191.971C255.756 191.069 255.201 189.889 255.201 188.431C255.201 185.03 258.389 183.294 264.833 183.294H271.208C271.208 186.765 270.308 189.334 268.437 190.93C266.566 192.527 264.348 193.36 261.715 193.36Z" fill="white"/>
<path d="M291.437 149.281V158.236H300.93V149.281H291.437ZM291.437 162.192V199.537H300.93V162.192H291.437Z" fill="white"/>
<path d="M309.015 149.281V199.537H318.508V188.778L323.359 183.78L334.099 199.537H345.325L329.803 176.908L343.939 162.192H332.228L318.508 176.631V149.281H309.015Z" fill="white"/>
<path d="M349.833 149.281V158.236H359.327V149.281H349.833ZM349.833 162.192V199.537H359.327V162.192H349.833Z" fill="white"/>
<path d="M403.716 149.281H394.222V167.676C391.659 163.442 387.708 161.359 382.511 161.359C377.591 161.359 373.572 163.095 370.593 166.635C367.613 170.175 366.088 174.965 366.088 180.865C366.088 186.765 367.613 191.485 370.593 195.025C373.572 198.566 377.591 200.37 382.511 200.37C387.708 200.37 391.659 198.288 394.222 194.054V199.537H403.716V149.281ZM385.075 192.804C381.957 192.804 379.67 191.694 378.077 189.403C376.483 187.182 375.721 184.336 375.721 180.865C375.721 177.394 376.483 174.548 378.077 172.257C379.67 169.967 381.957 168.856 385.075 168.856C388.124 168.856 390.48 169.967 392.213 172.119C393.876 174.34 394.708 177.255 394.708 180.865C394.708 184.474 393.876 187.39 392.213 189.542C390.48 191.694 388.124 192.804 385.075 192.804Z" fill="white"/>
<path d="M428.309 200.37C434.13 200.37 438.704 198.635 442.099 195.095C445.425 191.555 447.088 186.835 447.088 180.865C447.088 174.895 445.425 170.175 442.099 166.635C438.704 163.095 434.13 161.359 428.309 161.359C422.419 161.359 417.846 163.095 414.519 166.635C411.194 170.175 409.53 174.895 409.53 180.865C409.53 186.835 411.194 191.555 414.519 195.095C417.846 198.635 422.419 200.37 428.309 200.37ZM428.309 192.804C425.33 192.804 423.112 191.763 421.518 189.681C419.924 187.668 419.162 184.683 419.162 180.865C419.162 177.047 419.924 174.062 421.518 171.98C423.112 169.897 425.33 168.856 428.309 168.856C431.289 168.856 433.506 169.897 435.1 171.98C436.693 174.062 437.456 177.047 437.456 180.865C437.456 184.683 436.693 187.668 435.1 189.681C433.506 191.763 431.289 192.804 428.309 192.804Z" fill="white"/>
<path d="M514.918 200.768C501.667 200.768 495.074 194.111 494.242 185.021H503.524C504.676 190.782 509.093 193.087 515.046 193.087C521.319 193.087 524.199 190.398 524.199 186.878C524.199 182.397 519.526 181.629 513.637 180.348C506.084 178.748 495.522 176.252 495.522 166.202C495.522 157.88 502.691 152.887 513.189 152.887C522.983 152.887 530.6 157.24 531.817 166.394H522.535C521.639 162.617 518.374 160.569 513.189 160.569C507.94 160.569 504.804 162.745 504.804 165.818C504.804 170.171 510.949 171.259 518.502 172.923C524.199 174.139 533.417 176.316 533.417 186.173C533.417 191.614 530.536 200.768 514.918 200.768ZM561.969 200C561.777 198.4 561.649 197.312 561.585 195.583C559.28 198.72 555.632 200.768 550.319 200.768C544.237 200.768 537.964 197.952 537.964 190.654C537.964 183.933 543.341 179.516 554.607 179.516H561.521V178.556C561.521 174.395 560.176 171.259 554.799 171.259C551.151 171.259 548.27 172.859 547.63 176.444H539.117C540.013 169.594 544.942 164.794 555.055 164.794C566.578 164.794 570.29 171.067 570.29 178.172V192.703C570.29 195.199 570.418 197.952 570.674 200H561.969ZM553.071 194.303C557.616 194.303 561.649 192.063 561.649 185.021H555.76C550.639 185.021 546.862 186.173 546.862 189.822C546.862 192.447 548.91 194.303 553.071 194.303ZM593.195 160.121C589.482 160.121 588.33 160.953 588.33 164.153V165.562H595.819V172.027H588.33V200H579.56V172.027H574.568V165.562H579.56V163.449C579.56 157.112 582.761 153.655 590.25 153.655H595.947V160.121H593.195ZM615.202 164.794C626.468 164.794 633.061 172.539 632.357 184.957H606.496C607.137 190.91 610.465 193.791 615.266 193.791C619.939 193.791 622.435 191.038 623.267 188.158H632.165C630.629 196.223 624.164 200.768 615.266 200.768C604.064 200.768 597.471 193.535 597.471 182.781C597.471 172.027 604.384 164.794 615.202 164.794ZM623.46 179.324C623.011 175.035 620.451 171.643 615.138 171.643C610.593 171.643 607.585 174.139 606.624 179.324H623.46ZM674.784 200.768C659.485 200.768 651.676 189.566 651.676 176.828C651.676 164.089 659.485 152.887 674.784 152.887C687.522 152.887 694.564 160.633 696.292 169.85H686.882C685.666 165.626 682.657 160.761 674.784 160.761C666.718 160.761 661.021 165.818 661.021 176.828C661.021 187.774 666.782 192.895 674.784 192.895C682.657 192.895 685.666 188.03 686.882 183.805H696.292C694.564 193.023 687.522 200.768 674.784 200.768ZM721.305 164.794C729.563 164.794 733.148 169.594 733.148 177.596V200H724.378V179.772C724.378 175.163 723.482 171.707 718.297 171.707C712.088 171.707 710.487 176.7 710.487 182.397V200H701.718V153.655H710.487V170.619C712.984 166.138 717.017 164.794 721.305 164.794ZM762.381 200C762.188 198.4 762.06 197.312 761.996 195.583C759.692 198.72 756.043 200.768 750.73 200.768C744.649 200.768 738.376 197.952 738.376 190.654C738.376 183.933 743.753 179.516 755.019 179.516H761.932V178.556C761.932 174.395 760.588 171.259 755.211 171.259C751.563 171.259 748.682 172.859 748.042 176.444H739.528C740.424 169.594 745.353 164.794 755.467 164.794C766.989 164.794 770.702 171.067 770.702 178.172V192.703C770.702 195.199 770.83 197.952 771.086 200H762.381ZM753.483 194.303C758.028 194.303 762.06 192.063 762.06 185.021H756.171C751.05 185.021 747.274 186.173 747.274 189.822C747.274 192.447 749.322 194.303 753.483 194.303ZM777.919 153.655H787.841V161.913H777.919V153.655ZM778.495 165.562H787.265V200H778.495V165.562ZM814.385 164.794C822.643 164.794 826.227 169.594 826.227 177.596V200H817.458V179.772C817.458 175.163 816.561 171.707 811.377 171.707C805.167 171.707 803.567 176.636 803.567 182.397V200H794.797V165.562H803.567V170.619C806.064 166.138 810.096 164.794 814.385 164.794Z" fill="white"/>
<path d="M1564.2 519C1564.01 517.272 1563.88 516.184 1563.82 514.008C1561.32 517.592 1557.29 519.768 1551.91 519.768C1546.47 519.768 1539.75 517.464 1539.75 509.912C1539.75 503.192 1545.06 498.84 1557.16 498.84H1563.82V498.2C1563.82 494.04 1563.56 488.344 1555.37 488.344C1549.03 488.344 1546.86 491.8 1546.22 495.448H1540.65C1541.48 488.664 1546.09 483.8 1555.62 483.8C1566.76 483.8 1569.38 490.456 1569.38 497.56V511.768C1569.38 514.2 1569.51 516.952 1569.77 519H1564.2ZM1553.26 515.224C1558.57 515.224 1563.94 512.664 1563.94 503.064H1557.74C1549.29 503.064 1545.45 505.176 1545.45 509.4C1545.45 513.176 1548.46 515.224 1553.26 515.224ZM1577.29 472.664H1584.2V479.448H1577.29V472.664ZM1577.93 484.568H1583.5V519H1577.93V484.568ZM1591.73 472.664H1597.29V500.44L1612.65 484.568H1619.63L1606.51 498.072L1620.85 519H1614.32L1602.73 502.04L1597.29 507.608V519H1591.73V472.664ZM1625.48 472.664H1632.39V479.448H1625.48V472.664ZM1626.12 484.568H1631.68V519H1626.12V484.568ZM1670.74 472.664V519H1665.17V513.304C1662.93 517.08 1659.28 519.768 1653.84 519.768C1645.26 519.768 1639.18 512.984 1639.18 501.784C1639.18 490.52 1645.26 483.8 1653.84 483.8C1659.28 483.8 1662.93 486.488 1665.17 490.264V472.664H1670.74ZM1655.06 515.032C1661.33 515.032 1665.49 509.592 1665.49 501.784C1665.49 493.976 1661.33 488.472 1655.06 488.472C1648.72 488.472 1644.88 494.04 1644.88 501.784C1644.88 509.528 1648.72 515.032 1655.06 515.032ZM1693.06 519.768C1683.01 519.768 1676.87 512.792 1676.87 501.784C1676.87 490.776 1683.01 483.8 1693.06 483.8C1703.04 483.8 1709.25 490.776 1709.25 501.784C1709.25 512.792 1703.04 519.768 1693.06 519.768ZM1693.06 515.032C1699.65 515.032 1703.56 510.104 1703.56 501.784C1703.56 493.464 1699.65 488.472 1693.06 488.472C1686.47 488.472 1682.56 493.464 1682.56 501.784C1682.56 510.104 1686.47 515.032 1693.06 515.032ZM1714.27 511.704H1721.44V519H1714.27V511.704ZM1758.3 472.664V519H1752.73V513.304C1750.49 517.08 1746.84 519.768 1741.4 519.768C1732.83 519.768 1726.75 512.984 1726.75 501.784C1726.75 490.52 1732.83 483.8 1741.4 483.8C1746.84 483.8 1750.49 486.488 1752.73 490.264V472.664H1758.3ZM1742.62 515.032C1748.89 515.032 1753.05 509.592 1753.05 501.784C1753.05 493.976 1748.89 488.472 1742.62 488.472C1736.28 488.472 1732.44 494.04 1732.44 501.784C1732.44 509.528 1736.28 515.032 1742.62 515.032ZM1781.01 483.8C1791.69 483.8 1797.71 491.736 1797.13 503.32H1770.19C1770.7 510.232 1774.54 515.032 1781.13 515.032C1786.25 515.032 1790.03 512.152 1791.12 507.8H1796.81C1795.28 515.608 1789.13 519.768 1781.13 519.768C1770.64 519.768 1764.43 512.536 1764.43 501.784C1764.43 491.032 1770.83 483.8 1781.01 483.8ZM1791.25 499.032C1791.12 493.848 1787.92 488.472 1780.81 488.472C1774.54 488.472 1771.02 492.696 1770.25 499.032H1791.25ZM1800.02 484.568H1806.1L1815.7 512.152L1825.3 484.568H1831.32L1818.58 519H1812.76L1800.02 484.568ZM1850.41 472.664H1856.17L1837.48 519H1831.72L1850.41 472.664ZM1869.58 519.768C1859.73 519.768 1854.67 514.456 1854.03 507.928H1859.6C1860.56 511.576 1862.99 515.16 1869.65 515.16C1875.79 515.16 1877.97 512.088 1877.97 509.528C1877.97 505.688 1873.42 504.728 1868.43 503.768C1863.06 502.68 1854.8 501.08 1854.8 493.592C1854.8 487.32 1860.82 483.8 1868.3 483.8C1877.71 483.8 1882.19 489.24 1882.83 494.296H1877.2C1876.43 491.8 1874.51 488.408 1868.11 488.408C1862.8 488.408 1860.43 490.776 1860.43 493.4C1860.43 497.112 1865.3 498.136 1870.42 499.224C1877.01 500.568 1883.6 502.296 1883.6 508.952C1883.6 514.328 1879.5 519.768 1869.58 519.768ZM1913.2 519C1913.01 517.272 1912.88 516.184 1912.82 514.008C1910.32 517.592 1906.29 519.768 1900.91 519.768C1895.47 519.768 1888.75 517.464 1888.75 509.912C1888.75 503.192 1894.06 498.84 1906.16 498.84H1912.82V498.2C1912.82 494.04 1912.56 488.344 1904.37 488.344C1898.03 488.344 1895.86 491.8 1895.22 495.448H1889.65C1890.48 488.664 1895.09 483.8 1904.62 483.8C1915.76 483.8 1918.38 490.456 1918.38 497.56V511.768C1918.38 514.2 1918.51 516.952 1918.77 519H1913.2ZM1902.26 515.224C1907.57 515.224 1912.94 512.664 1912.94 503.064H1906.74C1898.29 503.064 1894.45 505.176 1894.45 509.4C1894.45 513.176 1897.46 515.224 1902.26 515.224ZM1939.15 477.208C1934.92 477.208 1933.9 478.232 1933.9 482.072V484.568H1941V489.112H1933.9V519H1928.33V489.112H1923.34V484.568H1928.33V481.88C1928.33 476.44 1930.12 472.664 1937.61 472.664H1941.39V477.208H1939.15ZM1959.63 483.8C1970.32 483.8 1976.34 491.736 1975.76 503.32H1948.82C1949.33 510.232 1953.17 515.032 1959.76 515.032C1964.88 515.032 1968.66 512.152 1969.74 507.8H1975.44C1973.9 515.608 1967.76 519.768 1959.76 519.768C1949.26 519.768 1943.06 512.536 1943.06 501.784C1943.06 491.032 1949.46 483.8 1959.63 483.8ZM1969.87 499.032C1969.74 493.848 1966.54 488.472 1959.44 488.472C1953.17 488.472 1949.65 492.696 1948.88 499.032H1969.87ZM1996.94 519.768C1986.63 519.768 1980.68 512.536 1980.68 501.784C1980.68 491.032 1986.63 483.8 1996.94 483.8C2004.81 483.8 2010.31 488.024 2011.91 495.768H2006.15C2005 491.352 2001.86 488.472 1996.74 488.472C1989.58 488.472 1986.38 493.976 1986.38 501.784C1986.38 509.528 1989.58 515.032 1996.74 515.032C2002.06 515.032 2005 512.152 2006.15 507.8H2011.91C2010.31 515.544 2004.81 519.768 1996.94 519.768ZM2035.06 483.8C2043.31 483.8 2046.9 489.176 2046.9 496.664V519H2041.33V498.008C2041.33 492.568 2039.47 488.472 2033.59 488.472C2026.99 488.472 2023.79 493.592 2023.79 500.312V519H2018.23V472.664H2023.79V490.008C2026.35 485.336 2030.64 483.8 2035.06 483.8ZM2077.7 519C2077.51 517.272 2077.38 516.184 2077.32 514.008C2074.82 517.592 2070.79 519.768 2065.41 519.768C2059.97 519.768 2053.25 517.464 2053.25 509.912C2053.25 503.192 2058.56 498.84 2070.66 498.84H2077.32V498.2C2077.32 494.04 2077.06 488.344 2068.87 488.344C2062.53 488.344 2060.36 491.8 2059.72 495.448H2054.15C2054.98 488.664 2059.59 483.8 2069.12 483.8C2080.26 483.8 2082.88 490.456 2082.88 497.56V511.768C2082.88 514.2 2083.01 516.952 2083.27 519H2077.7ZM2066.76 515.224C2072.07 515.224 2077.44 512.664 2077.44 503.064H2071.24C2062.79 503.064 2058.95 505.176 2058.95 509.4C2058.95 513.176 2061.96 515.224 2066.76 515.224ZM2090.79 472.664H2097.7V479.448H2090.79V472.664ZM2091.43 484.568H2097V519H2091.43V484.568ZM2122.18 483.8C2130.44 483.8 2134.02 489.176 2134.02 496.664V519H2128.45V498.008C2128.45 492.568 2126.6 488.472 2120.71 488.472C2114.12 488.472 2110.92 493.592 2110.92 500.312V519H2105.35V484.568H2110.92V490.008C2113.48 485.336 2117.77 483.8 2122.18 483.8Z" fill="white" fill-opacity="0.8"/>
<rect x="1205.56" y="302.561" width="419.878" height="91.8781" rx="10.1367" fill="#1E1E1E" stroke="#514892" stroke-width="1.12195"/>
<path d="M696.624 316.664V363H689.072L665.008 324.216V363H659.184V316.664H666.8L690.8 355.384V316.664H696.624ZM720.373 363.768C710.325 363.768 704.181 356.792 704.181 345.784C704.181 334.776 710.325 327.8 720.373 327.8C730.357 327.8 736.565 334.776 736.565 345.784C736.565 356.792 730.357 363.768 720.373 363.768ZM720.373 359.032C726.965 359.032 730.869 354.104 730.869 345.784C730.869 337.464 726.965 332.472 720.373 332.472C713.781 332.472 709.877 337.464 709.877 345.784C709.877 354.104 713.781 359.032 720.373 359.032ZM796.112 327.8C805.456 327.8 807.632 335.224 807.632 341.496V363H802.064V341.432C802.064 337.656 801.04 332.472 794.704 332.472C787.856 332.472 785.744 338.488 785.744 343.736V363H780.176V341.944C780.176 337.784 779.28 332.472 772.944 332.472C766.16 332.472 763.856 338.488 763.856 344.632V363H758.288V328.568H763.856V334.2C765.968 330.04 769.488 327.8 774.544 327.8C780.432 327.8 783.248 330.872 784.528 334.52C787.024 330.232 790.736 327.8 796.112 327.8ZM829.373 363.768C819.325 363.768 813.181 356.792 813.181 345.784C813.181 334.776 819.325 327.8 829.373 327.8C839.357 327.8 845.565 334.776 845.565 345.784C845.565 356.792 839.357 363.768 829.373 363.768ZM829.373 359.032C835.965 359.032 839.869 354.104 839.869 345.784C839.869 337.464 835.965 332.472 829.373 332.472C822.781 332.472 818.877 337.464 818.877 345.784C818.877 354.104 822.781 359.032 829.373 359.032ZM866.575 328.184C867.343 328.184 868.047 328.248 868.751 328.376V333.944C867.983 333.816 867.087 333.752 866.319 333.752C857.359 333.752 857.231 342.072 857.231 347.192V363H851.663V328.568H857.167V334.136C859.087 330.36 862.159 328.184 866.575 328.184ZM888.444 327.8C899.132 327.8 905.148 335.736 904.572 347.32H877.628C878.14 354.232 881.98 359.032 888.572 359.032C893.692 359.032 897.468 356.152 898.556 351.8H904.252C902.716 359.608 896.572 363.768 888.572 363.768C878.076 363.768 871.868 356.536 871.868 345.784C871.868 335.032 878.268 327.8 888.444 327.8ZM898.684 343.032C898.556 337.848 895.356 332.472 888.252 332.472C881.98 332.472 878.46 336.696 877.692 343.032H898.684ZM926.538 316.664H933.45V323.448H926.538V316.664ZM927.178 328.568H932.746V363H927.178V328.568ZM957.933 327.8C966.189 327.8 969.773 333.176 969.773 340.664V363H964.205V342.008C964.205 336.568 962.349 332.472 956.461 332.472C949.869 332.472 946.669 337.592 946.669 344.312V363H941.101V328.568H946.669V334.008C949.229 329.336 953.517 327.8 957.933 327.8ZM990.958 363.768C981.103 363.768 976.047 358.456 975.407 351.928H980.975C981.935 355.576 984.367 359.16 991.023 359.16C997.167 359.16 999.343 356.088 999.343 353.528C999.343 349.688 994.799 348.728 989.807 347.768C984.431 346.68 976.174 345.08 976.174 337.592C976.174 331.32 982.191 327.8 989.679 327.8C999.087 327.8 1003.57 333.24 1004.21 338.296H998.575C997.807 335.8 995.887 332.408 989.487 332.408C984.175 332.408 981.807 334.776 981.807 337.4C981.807 341.112 986.671 342.136 991.791 343.224C998.383 344.568 1004.97 346.296 1004.97 352.952C1004.97 358.328 1000.88 363.768 990.958 363.768ZM1027.03 358.264V363H1022.55C1017.05 363 1013.79 361.592 1013.79 354.872V333.048H1008.03V328.568H1013.79V320.504H1019.35V328.568H1026.59V333.048H1019.35V353.848C1019.35 357.112 1020.31 358.264 1023.39 358.264H1027.03ZM1055.95 363C1055.76 361.272 1055.63 360.184 1055.57 358.008C1053.07 361.592 1049.04 363.768 1043.66 363.768C1038.22 363.768 1031.5 361.464 1031.5 353.912C1031.5 347.192 1036.81 342.84 1048.91 342.84H1055.57V342.2C1055.57 338.04 1055.31 332.344 1047.12 332.344C1040.78 332.344 1038.61 335.8 1037.97 339.448H1032.4C1033.23 332.664 1037.84 327.8 1047.37 327.8C1058.51 327.8 1061.13 334.456 1061.13 341.56V355.768C1061.13 358.2 1061.26 360.952 1061.52 363H1055.95ZM1045.01 359.224C1050.32 359.224 1055.69 356.664 1055.69 347.064H1049.49C1041.04 347.064 1037.2 349.176 1037.2 353.4C1037.2 357.176 1040.21 359.224 1045.01 359.224ZM1069.54 316.664H1075.11V363H1069.54V316.664ZM1084.04 316.664H1089.61V363H1084.04V316.664ZM1098.16 316.664H1105.08V323.448H1098.16V316.664ZM1098.8 328.568H1104.37V363H1098.8V328.568ZM1129.56 327.8C1137.81 327.8 1141.4 333.176 1141.4 340.664V363H1135.83V342.008C1135.83 336.568 1133.97 332.472 1128.09 332.472C1121.49 332.472 1118.29 337.592 1118.29 344.312V363H1112.73V328.568H1118.29V334.008C1120.85 329.336 1125.14 327.8 1129.56 327.8ZM1178.67 328.568V362.616C1178.67 371.128 1173.23 376.568 1163.31 376.568C1154.74 376.568 1149.75 372.472 1148.91 365.88H1154.48C1155.38 369.912 1158.64 371.896 1163.51 371.896C1169.65 371.896 1173.11 368.76 1173.11 362.744V356.536C1170.87 360.184 1167.22 362.68 1161.84 362.68C1153.27 362.68 1147.12 356.472 1147.12 345.272C1147.12 334.072 1153.27 327.8 1161.84 327.8C1167.22 327.8 1170.87 330.296 1173.11 333.944V328.568H1178.67ZM1162.99 358.008C1169.33 358.008 1173.43 352.888 1173.43 345.272C1173.43 337.656 1169.33 332.472 1162.99 332.472C1156.66 332.472 1152.82 337.592 1152.82 345.272C1152.82 352.888 1156.66 358.008 1162.99 358.008Z" fill="white" fill-opacity="0.8"/>
<path d="M1234.47 364.141V359.659H1242.37V339.306C1242.37 338.269 1241.87 337.75 1240.88 337.75H1235.27V333.269H1242.81C1244.17 333.269 1245.27 333.643 1246.1 334.389C1246.93 335.136 1247.35 336.236 1247.35 337.688V338.995H1247.6C1248.1 336.921 1249.03 335.323 1250.4 334.203C1251.81 333.082 1253.76 332.522 1256.25 332.522H1261.91V338.062H1255.5C1252.97 338.062 1251.02 338.912 1249.65 340.614C1248.28 342.273 1247.6 344.41 1247.6 347.024V359.659H1257.31V364.141H1234.47ZM1285.54 364.888C1282.64 364.888 1280.06 364.224 1277.82 362.896C1275.62 361.527 1273.88 359.639 1272.59 357.232C1271.31 354.784 1270.67 351.941 1270.67 348.705C1270.67 345.468 1271.29 342.647 1272.53 340.24C1273.82 337.792 1275.58 335.904 1277.82 334.576C1280.06 333.207 1282.68 332.522 1285.67 332.522C1288.65 332.522 1291.2 333.207 1293.32 334.576C1295.44 335.904 1297.06 337.667 1298.18 339.867C1299.3 342.066 1299.86 344.431 1299.86 346.962C1299.86 347.419 1299.84 347.875 1299.79 348.331C1299.79 348.788 1299.79 349.307 1299.79 349.887H1275.83C1275.96 352.17 1276.47 354.078 1277.39 355.614C1278.34 357.107 1279.52 358.228 1280.93 358.975C1282.39 359.722 1283.92 360.095 1285.54 360.095C1287.82 360.095 1289.61 359.618 1290.89 358.663C1292.18 357.709 1293.15 356.381 1293.82 354.68H1298.98C1298.28 357.543 1296.81 359.97 1294.57 361.962C1292.32 363.912 1289.32 364.888 1285.54 364.888ZM1285.54 337.19C1283.13 337.19 1281.02 337.916 1279.19 339.369C1277.41 340.821 1276.31 342.854 1275.89 345.468H1294.69C1294.52 342.896 1293.59 340.883 1291.89 339.431C1290.23 337.937 1288.11 337.19 1285.54 337.19ZM1321.99 355.053C1319.83 355.053 1317.9 354.659 1316.2 353.871L1314.08 356.423C1313.63 357.045 1313.5 357.668 1313.71 358.29C1313.96 358.871 1314.56 359.161 1315.52 359.161H1323.67C1327.36 359.161 1330.35 359.887 1332.63 361.34C1334.91 362.751 1336.06 365.012 1336.06 368.124C1336.06 369.991 1335.58 371.713 1334.62 373.29C1333.67 374.867 1332.16 376.132 1330.08 377.087C1328.05 378.083 1325.37 378.581 1322.05 378.581C1317.74 378.581 1314.27 377.771 1311.66 376.153C1309.04 374.535 1307.74 372.066 1307.74 368.746C1307.74 367.543 1308.03 366.423 1308.61 365.385C1309.23 364.39 1310 363.497 1310.91 362.709C1309.71 361.962 1308.96 360.842 1308.67 359.348C1308.42 357.854 1308.88 356.381 1310.04 354.929L1312.84 351.443C1310.85 349.369 1309.85 346.817 1309.85 343.788C1309.85 341.796 1310.33 339.95 1311.28 338.248C1312.24 336.506 1313.61 335.116 1315.39 334.078C1317.22 333.041 1319.42 332.522 1321.99 332.522C1323.65 332.522 1325.18 332.771 1326.6 333.269H1338.17V337.19L1332.38 337.377V337.813C1333.46 339.597 1334 341.589 1334 343.788C1334 345.78 1333.52 347.647 1332.57 349.39C1331.66 351.091 1330.29 352.46 1328.46 353.497C1326.68 354.535 1324.52 355.053 1321.99 355.053ZM1321.99 350.572C1324.02 350.572 1325.68 349.97 1326.97 348.767C1328.3 347.564 1328.96 345.904 1328.96 343.788C1328.96 341.672 1328.3 340.033 1326.97 338.871C1325.68 337.667 1324.02 337.066 1321.99 337.066C1319.91 337.066 1318.21 337.667 1316.89 338.871C1315.56 340.033 1314.89 341.672 1314.89 343.788C1314.89 345.904 1315.56 347.564 1316.89 348.767C1318.21 349.97 1319.91 350.572 1321.99 350.572ZM1312.9 368.56C1312.9 370.385 1313.75 371.755 1315.45 372.668C1317.16 373.581 1319.35 374.037 1322.05 374.037C1324.67 374.037 1326.78 373.518 1328.4 372.481C1330.06 371.444 1330.89 370.054 1330.89 368.311C1330.89 366.941 1330.31 365.78 1329.15 364.825C1327.99 363.912 1325.85 363.456 1322.74 363.456H1315.7C1313.84 364.825 1312.9 366.527 1312.9 368.56ZM1346.43 364.141V359.659H1354.33V339.306C1354.33 338.269 1353.83 337.75 1352.84 337.75H1347.24V333.269H1354.77C1356.14 333.269 1357.24 333.643 1358.07 334.389C1358.89 335.136 1359.31 336.236 1359.31 337.688V338.995H1359.56C1360.06 336.921 1360.99 335.323 1362.36 334.203C1363.77 333.082 1365.72 332.522 1368.21 332.522H1373.87V338.062H1367.46C1364.93 338.062 1362.98 338.912 1361.61 340.614C1360.24 342.273 1359.56 344.41 1359.56 347.024V359.659H1369.27V364.141H1346.43ZM1397.5 364.888C1394.6 364.888 1392.02 364.224 1389.78 362.896C1387.58 361.527 1385.84 359.639 1384.56 357.232C1383.27 354.784 1382.63 351.941 1382.63 348.705C1382.63 345.468 1383.25 342.647 1384.49 340.24C1385.78 337.792 1387.54 335.904 1389.78 334.576C1392.02 333.207 1394.64 332.522 1397.63 332.522C1400.61 332.522 1403.17 333.207 1405.28 334.576C1407.4 335.904 1409.02 337.667 1410.14 339.867C1411.26 342.066 1411.82 344.431 1411.82 346.962C1411.82 347.419 1411.8 347.875 1411.75 348.331C1411.75 348.788 1411.75 349.307 1411.75 349.887H1387.79C1387.92 352.17 1388.44 354.078 1389.35 355.614C1390.3 357.107 1391.48 358.228 1392.9 358.975C1394.35 359.722 1395.88 360.095 1397.5 360.095C1399.78 360.095 1401.57 359.618 1402.85 358.663C1404.14 357.709 1405.12 356.381 1405.78 354.68H1410.95C1410.24 357.543 1408.77 359.97 1406.53 361.962C1404.29 363.912 1401.28 364.888 1397.5 364.888ZM1397.5 337.19C1395.09 337.19 1392.98 337.916 1391.15 339.369C1389.37 340.821 1388.27 342.854 1387.85 345.468H1406.65C1406.48 342.896 1405.55 340.883 1403.85 339.431C1402.19 337.937 1400.07 337.19 1397.5 337.19ZM1437.75 364.141C1434.93 364.141 1432.71 363.456 1431.09 362.087C1429.47 360.717 1428.66 358.248 1428.66 354.68V337.75H1420.82V333.269H1425.49C1427.6 333.269 1428.83 332.232 1429.16 330.157L1430.03 325.364H1433.89V333.269H1446.21V337.75H1433.89V354.68C1433.89 356.423 1434.28 357.647 1435.07 358.352C1435.9 359.058 1437.31 359.41 1439.3 359.41H1446.21V364.141H1437.75ZM1471.83 364.265C1470.54 364.265 1469.44 363.829 1468.53 362.958C1467.62 362.087 1467.16 361.008 1467.16 359.722C1467.16 358.477 1467.62 357.419 1468.53 356.547C1469.44 355.676 1470.54 355.24 1471.83 355.24C1473.12 355.24 1474.22 355.676 1475.13 356.547C1476.04 357.419 1476.5 358.477 1476.5 359.722C1476.5 361.008 1476.04 362.087 1475.13 362.958C1474.22 363.829 1473.12 364.265 1471.83 364.265ZM1509.46 364.888C1506.56 364.888 1503.99 364.224 1501.74 362.896C1499.55 361.527 1497.8 359.639 1496.52 357.232C1495.23 354.784 1494.59 351.941 1494.59 348.705C1494.59 345.468 1495.21 342.647 1496.45 340.24C1497.74 337.792 1499.5 335.904 1501.74 334.576C1503.99 333.207 1506.6 332.522 1509.59 332.522C1512.57 332.522 1515.13 333.207 1517.24 334.576C1519.36 335.904 1520.98 337.667 1522.1 339.867C1523.22 342.066 1523.78 344.431 1523.78 346.962C1523.78 347.419 1523.76 347.875 1523.72 348.331C1523.72 348.788 1523.72 349.307 1523.72 349.887H1499.75C1499.88 352.17 1500.4 354.078 1501.31 355.614C1502.26 357.107 1503.45 358.228 1504.86 358.975C1506.31 359.722 1507.84 360.095 1509.46 360.095C1511.74 360.095 1513.53 359.618 1514.82 358.663C1516.1 357.709 1517.08 356.381 1517.74 354.68H1522.91C1522.2 357.543 1520.73 359.97 1518.49 361.962C1516.25 363.912 1513.24 364.888 1509.46 364.888ZM1509.46 337.19C1507.06 337.19 1504.94 337.916 1503.11 339.369C1501.33 340.821 1500.23 342.854 1499.82 345.468H1518.61C1518.45 342.896 1517.51 340.883 1515.81 339.431C1514.15 337.937 1512.04 337.19 1509.46 337.19ZM1532.34 364.141L1542.86 348.705L1532.09 333.269H1537.88L1546.47 345.717L1555.06 333.269H1560.85L1550.08 348.705L1560.6 364.141H1554.81L1546.47 351.63L1538.07 364.141H1532.34ZM1584.1 364.888C1581.2 364.888 1578.63 364.224 1576.39 362.896C1574.19 361.527 1572.44 359.639 1571.16 357.232C1569.87 354.784 1569.23 351.941 1569.23 348.705C1569.23 345.468 1569.85 342.647 1571.09 340.24C1572.38 337.792 1574.14 335.904 1576.39 334.576C1578.63 333.207 1581.24 332.522 1584.23 332.522C1587.22 332.522 1589.77 333.207 1591.88 334.576C1594 335.904 1595.62 337.667 1596.74 339.867C1597.86 342.066 1598.42 344.431 1598.42 346.962C1598.42 347.419 1598.4 347.875 1598.36 348.331C1598.36 348.788 1598.36 349.307 1598.36 349.887H1574.39C1574.52 352.17 1575.04 354.078 1575.95 355.614C1576.9 357.107 1578.09 358.228 1579.5 358.975C1580.95 359.722 1582.48 360.095 1584.1 360.095C1586.39 360.095 1588.17 359.618 1589.46 358.663C1590.74 357.709 1591.72 356.381 1592.38 354.68H1597.55C1596.84 357.543 1595.37 359.97 1593.13 361.962C1590.89 363.912 1587.88 364.888 1584.1 364.888ZM1584.1 337.19C1581.7 337.19 1579.58 337.916 1577.75 339.369C1575.97 340.821 1574.87 342.854 1574.46 345.468H1593.25C1593.09 342.896 1592.15 340.883 1590.45 339.431C1588.79 337.937 1586.68 337.19 1584.1 337.19Z" fill="white" fill-opacity="0.8"/>
<defs>
<filter id="filter0_f_33983_88202" x="134" y="-417" width="2012" height="1524" filterUnits="userSpaceOnUse" color-interpolation-filters="sRGB">
<feFlood flood-opacity="0" result="BackgroundImageFix"/>
<feBlend mode="normal" in="SourceGraphic" in2="BackgroundImageFix" result="shape"/>
<feGaussianBlur stdDeviation="250" result="effect1_foregroundBlur_33983_88202"/>
</filter>
<filter id="filter1_f_33983_88202" x="134" y="-417" width="2012" height="1524" filterUnits="userSpaceOnUse" color-interpolation-filters="sRGB">
<feFlood flood-opacity="0" result="BackgroundImageFix"/>
<feBlend mode="normal" in="SourceGraphic" in2="BackgroundImageFix" result="shape"/>
<feGaussianBlur stdDeviation="250" result="effect1_foregroundBlur_33983_88202"/>
</filter>
<clipPath id="clip0_33983_88202">
<rect width="2216" height="626" fill="white" transform="translate(32 32)"/>
</clipPath>
<clipPath id="clip1_33983_88202">
<rect width="264.983" height="89.8719" fill="white" transform="translate(189 139.258)"/>
</clipPath>
<clipPath id="clip2_33983_88202">
<rect width="2216" height="626" fill="white" transform="translate(32 32)"/>
</clipPath>
</defs>
</svg>
