<svg width="2280" height="690" viewBox="0 0 2280 690" fill="none" xmlns="http://www.w3.org/2000/svg">
<rect width="2280" height="690" fill="#181435"/>
<g clip-path="url(#clip0_33983_88661)">
<rect x="32.5" y="32.5" width="2215" height="625" rx="31.5" fill="#141031" stroke="#3D3192"/>
<g opacity="0.4" filter="url(#filter0_f_33983_88661)">
<ellipse cx="1140" cy="345" rx="506" ry="262" fill="#6551F3"/>
</g>
<circle cx="1139.52" cy="344.515" r="119.145" fill="white" fill-opacity="0.01" stroke="#A397F8" stroke-width="0.614783"/>
<circle cx="1139.51" cy="344.506" r="238.905" fill="white" fill-opacity="0.01"/>
<circle cx="1139.51" cy="344.506" r="238.597" stroke="#A397F8" stroke-opacity="0.9" stroke-width="0.614783"/>
<circle cx="1139.54" cy="344.537" r="358.357" fill="white" fill-opacity="0.01"/>
<circle cx="1139.54" cy="344.537" r="358.05" stroke="#A397F8" stroke-opacity="0.8" stroke-width="0.614783"/>
<circle cx="1139.53" cy="344.528" r="477.81" fill="white" fill-opacity="0.01"/>
<circle cx="1139.53" cy="344.528" r="477.502" stroke="#A397F8" stroke-opacity="0.7" stroke-width="0.614783"/>
<circle cx="1139.52" cy="344.527" r="597.262" fill="white" fill-opacity="0.01"/>
<circle cx="1139.52" cy="344.527" r="596.954" stroke="#A397F8" stroke-opacity="0.6" stroke-width="0.614783"/>
<circle cx="1139.52" cy="344.519" r="716.714" fill="white" fill-opacity="0.01"/>
<circle cx="1139.52" cy="344.519" r="716.407" stroke="#A397F8" stroke-opacity="0.5" stroke-width="0.614783"/>
<circle cx="1139.51" cy="344.51" r="836.167" fill="white" fill-opacity="0.01"/>
<circle cx="1139.51" cy="344.51" r="835.859" stroke="#A397F8" stroke-opacity="0.4" stroke-width="0.614783"/>
<circle cx="1139.54" cy="344.541" r="955.619" fill="white" fill-opacity="0.01"/>
<circle cx="1139.54" cy="344.541" r="955.312" stroke="#A397F8" stroke-opacity="0.3" stroke-width="0.614783"/>
<circle cx="1139.53" cy="344.532" r="1075.07" fill="white" fill-opacity="0.01"/>
<circle cx="1139.53" cy="344.532" r="1074.76" stroke="#A397F8" stroke-opacity="0.2" stroke-width="0.614783"/>
<circle cx="1139.52" cy="344.524" r="1194.52" fill="white" fill-opacity="0.01"/>
<circle cx="1139.52" cy="344.524" r="1194.22" stroke="#A397F8" stroke-opacity="0.1" stroke-width="0.614783"/>
<g clip-path="url(#clip1_33983_88661)">
<mask id="mask0_33983_88661" style="mask-type:luminance" maskUnits="userSpaceOnUse" x="189" y="139" width="265" height="91">
<path d="M453.983 139.258H189V229.116H453.983V139.258Z" fill="white"/>
</mask>
<g mask="url(#mask0_33983_88661)">
<path d="M309.364 227.728C302.623 227.728 297.518 226.333 294.201 223.586C290.801 220.774 289.078 216.591 289.078 211.152V172.03C289.078 165.92 290.806 161.412 294.211 158.633C297.578 155.886 302.985 154.547 310.735 154.547H350.316C357.056 154.547 362.161 155.941 365.483 158.688C368.883 161.5 370.606 165.684 370.606 171.122V200.071H310.763V206.844H371.07L365.015 227.728H309.373H309.364ZM348.921 182.203V175.431H310.753V182.203H348.921Z" fill="#9F93F8"/>
<path d="M350.312 155.939C356.755 155.939 361.509 157.208 364.589 159.761C367.67 162.313 369.208 166.098 369.208 171.125V198.684H309.364V208.236H369.208L363.959 226.34H309.364C302.925 226.34 298.167 225.071 295.087 222.518C292.006 219.966 290.468 216.181 290.468 211.155V172.033C290.468 166.334 292.006 162.225 295.087 159.715C298.167 157.199 303.379 155.944 310.731 155.944H350.312M309.364 183.6H350.312V174.048H309.364V183.6ZM350.312 153.164H310.731C302.647 153.164 296.958 154.6 293.331 157.56C289.588 160.613 287.688 165.482 287.688 172.033V211.155C287.688 217.029 289.583 221.573 293.317 224.663C296.944 227.665 302.193 229.124 309.369 229.124H366.053L366.637 227.119L371.885 209.014L372.914 205.461H312.148V201.468H371.992V171.129C371.992 165.255 370.097 160.711 366.363 157.625C362.736 154.623 357.487 153.164 350.312 153.164ZM312.144 176.827H347.532V180.821H312.144V176.827Z" fill="#9F93F8"/>
<path d="M424.123 227.728L424.225 226.241C424.253 225.842 426.884 188.031 427.801 175.356C423.813 175.356 420.852 175.375 417.985 175.393C415.062 175.412 412.046 175.426 407.937 175.431L404.05 227.728H379.363L383.25 175.431H371.034L377.088 154.547H432.309C439.04 154.547 444.145 155.941 447.471 158.688C452.252 162.631 452.711 168.509 452.572 173.193C452.53 174.56 452.442 175.894 452.359 177.019L451.39 190.644C450.723 200.136 450.061 209.628 449.398 219.12L449.287 220.686C449.282 220.751 449.269 221.015 449.241 221.4C449.194 222.178 449.116 223.438 449.046 224.503C449.009 225.041 448.977 225.532 448.949 225.884C448.903 226.481 448.801 227.728 447.504 227.728H424.114H424.123Z" fill="#9F93F8"/>
<path d="M432.308 155.936C438.752 155.936 443.505 157.214 446.585 159.758C450.731 163.177 451.324 168.226 451.181 173.15C451.144 174.42 451.06 175.694 450.972 176.917C450.648 181.457 450.328 186.006 450.004 190.546C449.3 200.561 448.6 210.572 447.906 220.588C447.882 220.889 447.567 226.342 447.507 226.342H425.609C425.609 226.342 428.49 184.936 429.292 173.97C419.744 173.97 416.196 174.045 406.643 174.045L402.757 226.342H380.858L384.745 174.045H372.881L378.13 155.94H432.303M432.303 153.161H376.041L375.457 155.167L370.208 173.271L369.18 176.824H381.748L378.083 226.138L377.861 229.121H405.332L405.522 226.545L409.214 176.819C412.684 176.815 415.366 176.801 417.979 176.787C420.476 176.773 423.043 176.759 426.295 176.755C425.299 190.662 422.853 225.767 422.83 226.152L422.621 229.126H447.498C448.702 229.126 450.092 228.301 450.287 226.49C450.301 226.374 450.315 226.207 450.333 225.999C450.361 225.642 450.398 225.146 450.43 224.6C450.5 223.534 450.579 222.274 450.625 221.491C450.648 221.121 450.662 220.857 450.667 220.787L450.778 219.184C451.44 209.701 452.098 200.219 452.765 190.736L453.224 184.273L453.733 177.107C453.812 176.046 453.909 174.642 453.951 173.229C454.095 168.231 453.59 161.935 448.346 157.613C444.76 154.657 439.363 153.156 432.298 153.156L432.303 153.161Z" fill="#9F93F8"/>
<path d="M233.788 227.728V218.004L218.468 227.728H204.283V206.844H211.885L260.661 175.991V175.431H208.489V154.547H263.112C268.93 154.547 273.614 155.881 277.028 158.503C280.558 161.218 282.346 165.294 282.346 170.617V187.169L250.567 207.344H285.811V227.723H233.792L233.788 227.728Z" fill="#9F93F8"/>
<path d="M263.106 155.933C268.633 155.933 272.992 157.156 276.179 159.602C279.366 162.052 280.955 165.721 280.955 170.613V186.401L245.785 208.73H284.42V226.329H235.181V215.466L218.068 226.329H205.68V208.225H212.296L262.064 176.747V174.032H209.878V155.928H263.111M263.111 153.148H207.098V176.812H256.759L211.49 205.445H202.901V229.109H218.879L219.56 228.678L232.406 220.524V229.109H287.205V205.95H255.351L282.447 188.75L283.735 187.93V170.613C283.735 164.832 281.761 160.385 277.87 157.397C274.206 154.58 269.235 153.148 263.106 153.148H263.111Z" fill="#9F93F8"/>
<path d="M304.732 223.095C297.992 223.095 292.887 221.7 289.57 218.953C286.17 216.141 284.446 211.958 284.446 206.519V167.397C284.446 161.287 286.174 156.78 289.579 154C292.947 151.253 298.353 149.914 306.104 149.914H345.684C352.425 149.914 357.53 151.308 360.851 154.056C364.252 156.868 365.975 161.051 365.975 166.489V195.438H306.131V202.211H366.438L360.383 223.095H304.742H304.732ZM344.29 177.571V170.798H306.122V177.571H344.29Z" fill="#6551F3"/>
<path d="M345.678 151.303C352.122 151.303 356.875 152.572 359.956 155.125C363.037 157.677 364.575 161.462 364.575 166.489V194.048H304.731V203.6H364.575L359.326 221.704H304.731C298.292 221.704 293.534 220.435 290.453 217.882C287.373 215.33 285.835 211.545 285.835 206.519V167.397C285.835 161.698 287.373 157.589 290.453 155.079C293.534 152.563 298.746 151.308 306.098 151.308H345.678M304.731 178.964H345.678V169.412H304.731V178.964ZM345.678 148.528H306.098C298.014 148.528 292.325 149.964 288.698 152.924C284.955 155.977 283.055 160.846 283.055 167.397V206.519C283.055 212.393 284.95 216.937 288.684 220.027C292.311 223.029 297.56 224.488 304.736 224.488H361.42L362.003 222.482L367.252 204.378L368.281 200.825H307.515V196.832H367.359V166.489C367.359 160.614 365.464 156.07 361.73 152.985C358.103 149.983 352.854 148.523 345.678 148.523V148.528ZM307.511 172.191H342.899V176.185H307.511V172.191Z" fill="#6551F3"/>
<path d="M419.489 223.095L419.591 221.608C419.618 221.209 422.25 183.398 423.167 170.724C419.178 170.724 416.218 170.742 413.351 170.761C410.427 170.779 407.412 170.793 403.302 170.798L399.416 223.095H374.729L378.616 170.798H366.399L372.454 149.914H427.674C434.406 149.914 439.511 151.308 442.837 154.056C447.618 157.998 448.076 163.877 447.937 168.56C447.896 169.927 447.808 171.261 447.724 172.387L446.756 186.011C446.089 195.503 445.426 204.995 444.764 214.487L444.653 216.053C444.648 216.118 444.634 216.382 444.606 216.767C444.56 217.545 444.481 218.805 444.412 219.871C444.375 220.408 444.342 220.899 444.315 221.251C444.268 221.849 444.166 223.095 442.869 223.095H419.479H419.489Z" fill="#6551F3"/>
<path d="M427.676 151.303C434.12 151.303 438.873 152.582 441.954 155.125C446.1 158.544 446.693 163.593 446.549 168.518C446.512 169.787 446.429 171.061 446.341 172.284C446.017 176.824 445.697 181.373 445.373 185.913C444.669 195.929 443.969 205.94 443.274 215.955C443.251 216.256 442.936 221.709 442.876 221.709H420.978C420.978 221.709 423.859 180.303 424.661 169.338C415.113 169.338 411.564 169.412 402.012 169.412L398.125 221.709H376.227L380.114 169.412H368.25L373.498 151.308H427.672M427.672 148.528H371.409L370.825 150.534L365.577 168.638L364.548 172.191H377.117L373.452 221.505L373.23 224.488H400.701L400.891 221.913L404.583 172.187C408.053 172.182 410.735 172.168 413.348 172.154C415.845 172.14 418.411 172.126 421.663 172.122C420.667 186.029 418.221 221.134 418.198 221.519L417.99 224.493H442.867C444.071 224.493 445.461 223.668 445.655 221.857C445.669 221.741 445.683 221.574 445.702 221.366C445.73 221.009 445.767 220.514 445.799 219.967C445.868 218.901 445.947 217.641 445.994 216.859C446.017 216.488 446.031 216.224 446.035 216.154L446.146 214.551C446.809 205.069 447.467 195.586 448.134 186.103L448.592 179.64L449.102 172.474C449.181 171.413 449.278 170.009 449.32 168.596C449.463 163.598 448.958 157.302 443.714 152.98C440.129 150.024 434.732 148.523 427.667 148.523L427.672 148.528Z" fill="#6551F3"/>
<path d="M229.155 223.095V213.371L213.835 223.095H199.65V202.211H207.252L256.029 171.358V170.798H203.857V149.914H258.479C264.298 149.914 268.981 151.248 272.396 153.87C275.926 156.585 277.714 160.662 277.714 165.984V182.537L245.934 202.711H281.179V223.09H229.16L229.155 223.095Z" fill="#6551F3"/>
<path d="M258.475 151.303C264.002 151.303 268.361 152.526 271.548 154.972C274.735 157.423 276.324 161.092 276.324 165.984V181.771L241.154 204.1H279.789V221.7H230.55V210.836L213.437 221.7H201.05V203.595H207.665L257.433 172.117V169.402H205.247V151.303H258.48M258.48 148.523H202.467V172.187H252.128L206.859 200.821H198.27V224.484H214.248L214.929 224.053L227.775 215.9V224.484H282.574V201.325H250.72L277.816 184.125L279.104 183.305V165.988C279.104 160.207 277.13 155.76 273.239 152.772C269.575 149.955 264.604 148.523 258.475 148.523H258.48Z" fill="#6551F3"/>
<path d="M368.274 200.82L363.642 196.188L362.298 200.82H368.274Z" fill="#6551F3"/>
<path d="M273.302 192.062L277.935 196.695L272.77 196.737L273.302 192.062Z" fill="#1D1D1B"/>
<path d="M300.098 218.462C293.358 218.462 288.253 217.068 284.936 214.32C281.535 211.509 279.812 207.325 279.812 201.887V162.765C279.812 156.654 281.54 152.147 284.945 149.367C288.313 146.62 293.719 145.281 301.469 145.281H341.05C347.79 145.281 352.895 146.676 356.217 149.423C359.617 152.235 361.341 156.418 361.341 161.857V190.806H301.497V197.578H361.804L355.749 218.462H300.107H300.098ZM339.656 172.938V166.165H301.488V172.938H339.656Z" fill="#1D1D1B"/>
<path d="M341.046 146.67C347.49 146.67 352.243 147.939 355.324 150.492C358.404 153.045 359.942 156.829 359.942 161.856V189.415H300.099V198.967H359.942L354.694 217.071H300.099C293.659 217.071 288.902 215.802 285.821 213.249C282.74 210.697 281.202 206.912 281.202 201.886V162.764C281.202 157.066 282.74 152.957 285.821 150.446C288.902 147.93 294.113 146.675 301.465 146.675H341.046M300.099 174.331H341.046V164.779H300.099V174.331ZM341.046 143.891H301.465C293.381 143.891 287.693 145.327 284.065 148.287C280.322 151.34 278.423 156.209 278.423 162.759V201.881C278.423 207.755 280.318 212.3 284.051 215.39C287.679 218.392 292.927 219.851 300.103 219.851H356.787L357.371 217.845L362.62 199.741L363.648 196.188H302.883V192.194H362.726V161.856C362.726 155.982 360.832 151.437 357.098 148.352C353.471 145.35 348.222 143.891 341.046 143.891ZM302.878 167.554H338.266V171.547H302.878V167.554Z" fill="#1D1D1B"/>
<path d="M414.857 218.462L414.959 216.975C414.987 216.577 417.618 178.765 418.536 166.091C414.547 166.091 411.587 166.109 408.719 166.128C405.796 166.146 402.78 166.16 398.671 166.165L394.784 218.462H370.097L373.984 166.165H361.768L367.823 145.281H423.043C429.774 145.281 434.879 146.676 438.205 149.423C442.986 153.365 443.445 159.244 443.306 163.927C443.264 165.294 443.176 166.628 443.093 167.754L442.125 181.378C441.458 190.87 440.795 200.363 440.133 209.855L440.021 211.42C440.017 211.485 440.003 211.749 439.975 212.134C439.929 212.912 439.85 214.172 439.781 215.238C439.744 215.775 439.711 216.266 439.683 216.618C439.637 217.216 439.535 218.462 438.238 218.462H414.848H414.857Z" fill="#1D1D1B"/>
<path d="M423.042 146.67C429.486 146.67 434.239 147.949 437.32 150.492C441.466 153.911 442.059 158.96 441.915 163.885C441.878 165.154 441.795 166.428 441.707 167.651C441.382 172.191 441.063 176.74 440.739 181.28C440.034 191.296 439.335 201.307 438.64 211.322C438.617 211.623 438.302 217.076 438.242 217.076H416.343C416.343 217.076 419.225 175.67 420.026 164.705C410.479 164.705 406.93 164.779 397.378 164.779L393.491 217.076H371.593L375.479 164.779H363.615L368.864 146.675H423.037M423.037 143.895H366.775L366.191 145.901L360.942 164.005L359.914 167.558H372.482L368.818 216.872L368.595 219.856H396.067L396.257 217.28L399.949 167.554C403.419 167.549 406.101 167.535 408.714 167.521C411.211 167.507 413.777 167.494 417.029 167.489C416.033 181.396 413.587 216.502 413.564 216.886L413.355 219.86H438.232C439.437 219.86 440.827 219.036 441.021 217.224C441.035 217.108 441.049 216.942 441.067 216.733C441.095 216.376 441.132 215.881 441.165 215.334C441.234 214.269 441.313 213.009 441.359 212.226C441.382 211.855 441.396 211.591 441.401 211.522L441.512 209.919C442.175 200.436 442.832 190.953 443.5 181.47L443.958 175.008L444.468 167.841C444.547 166.78 444.644 165.376 444.686 163.964C444.829 158.965 444.324 152.669 439.08 148.347C435.494 145.392 430.098 143.891 423.033 143.891L423.037 143.895Z" fill="#1D1D1B"/>
<path d="M224.523 218.462V208.738L209.203 218.462H195.022V197.578H202.625L251.401 166.725V166.165H199.224V145.281H253.847C259.665 145.281 264.349 146.615 267.763 149.237C271.293 151.952 273.081 156.029 273.081 161.352V177.904L241.302 198.079H276.546V218.457H224.527L224.523 218.462Z" fill="#1D1D1B"/>
<path d="M253.843 146.67C259.369 146.67 263.729 147.893 266.916 150.339C270.103 152.79 271.692 156.459 271.692 161.351V177.139L236.522 199.468H275.157V217.067H225.918V206.203L208.805 217.067H196.417V198.963H203.033L252.801 167.484V164.77H200.615V146.67H253.847M253.847 143.891H197.835V167.554H247.496L202.222 196.188H193.633V219.851H209.611L210.292 219.42L223.138 211.267V219.851H277.937V196.693H246.083L273.179 179.492L274.467 178.672V161.355C274.467 155.574 272.494 151.127 268.602 148.139C264.938 145.322 259.967 143.891 253.838 143.891H253.847Z" fill="#1D1D1B"/>
<path d="M295.467 213.829C288.726 213.829 283.621 212.435 280.304 209.688C276.904 206.876 275.181 202.692 275.181 197.254V158.132C275.181 152.021 276.909 147.514 280.314 144.734C283.681 141.987 289.088 140.648 296.838 140.648H336.419C343.159 140.648 348.264 142.043 351.586 144.79C354.986 147.602 356.709 151.785 356.709 157.224V186.173H296.866V192.946H357.173L351.118 213.829H295.476H295.467ZM335.024 168.305V161.532H296.856V168.305H335.024Z" fill="white"/>
<path d="M336.413 142.037C342.857 142.037 347.61 143.307 350.691 145.859C353.772 148.412 355.31 152.197 355.31 157.223V184.782H295.466V194.334H355.31L350.061 212.439H295.466C289.027 212.439 284.269 211.169 281.188 208.617C278.108 206.064 276.57 202.279 276.57 197.253V158.131C276.57 152.433 278.108 148.324 281.188 145.813C284.269 143.297 289.481 142.042 296.833 142.042H336.413M295.466 169.698H336.413V160.146H295.466V169.698ZM336.413 139.258H296.833C288.749 139.258 283.055 140.699 279.428 143.654C275.685 146.707 273.786 151.576 273.786 158.126V197.248C273.786 203.122 275.68 207.667 279.414 210.757C283.042 213.759 288.29 215.218 295.466 215.218H352.15L352.734 213.212L357.983 195.108L359.011 191.555H298.246V187.562H358.089V157.223C358.089 151.349 356.194 146.804 352.461 143.719C348.838 140.717 343.585 139.258 336.413 139.258ZM298.246 162.921H333.634V166.914H298.246V162.921Z" fill="#1D1D1B"/>
<path d="M410.223 213.829L410.325 212.342C410.353 211.944 412.984 174.133 413.901 161.458C409.913 161.458 406.952 161.476 404.085 161.495C401.162 161.514 398.146 161.527 394.037 161.532L390.15 213.829H365.463L369.349 161.532H357.134L363.189 140.648H418.408C425.139 140.648 430.245 142.043 433.571 144.79C438.352 148.732 438.811 154.611 438.672 159.295C438.63 160.661 438.542 161.995 438.458 163.121L437.49 176.745C436.823 186.238 436.16 195.73 435.498 205.222L435.387 206.788C435.382 206.853 435.369 207.117 435.341 207.501C435.295 208.279 435.216 209.539 435.146 210.605C435.109 211.142 435.077 211.633 435.049 211.985C435.002 212.583 434.901 213.829 433.604 213.829H410.213H410.223Z" fill="white"/>
<path d="M418.41 142.037C424.853 142.037 429.606 143.316 432.687 145.859C436.833 149.278 437.426 154.328 437.283 159.252C437.246 160.521 437.162 161.795 437.074 163.018C436.75 167.558 436.43 172.107 436.106 176.647C435.402 186.663 434.702 196.674 434.007 206.69C433.984 206.991 433.669 212.443 433.609 212.443H411.711C411.711 212.443 414.592 171.037 415.394 160.072C405.846 160.072 402.297 160.146 392.745 160.146L388.858 212.443H366.96L370.847 160.146H358.983L364.232 142.042H418.405M418.41 139.258H362.147L361.563 141.264L356.315 159.368L355.286 162.921H367.854L364.19 212.235L363.968 215.218H391.439L391.629 212.642L395.321 162.916C398.791 162.912 401.473 162.898 404.086 162.884C406.583 162.87 409.149 162.856 412.401 162.852C411.405 176.758 408.959 211.864 408.936 212.249L408.727 215.223H433.604C434.809 215.223 436.199 214.398 436.393 212.587C436.407 212.471 436.421 212.304 436.44 212.096C436.467 211.739 436.504 211.243 436.537 210.697C436.606 209.631 436.685 208.371 436.731 207.588C436.755 207.218 436.768 206.954 436.773 206.884L436.884 205.281C437.547 195.798 438.205 186.315 438.872 176.833L439.33 170.37L439.84 163.204C439.919 162.143 440.016 160.739 440.058 159.326C440.201 154.328 439.696 148.032 434.452 143.71C430.876 140.759 425.474 139.258 418.41 139.258Z" fill="#1D1D1B"/>
<path d="M219.89 213.829V204.105L204.57 213.829H190.39V192.946H197.992L246.769 162.093V161.532H194.592V140.648H249.215C255.033 140.648 259.717 141.983 263.131 144.605C266.661 147.319 268.449 151.396 268.449 156.719V173.271L236.67 193.446H271.914V213.825H219.895L219.89 213.829Z" fill="white"/>
<path d="M249.21 142.037C254.736 142.037 259.095 143.26 262.283 145.706C265.47 148.157 267.059 151.826 267.059 156.718V172.506L231.888 194.835H270.524V212.434H221.284V201.571L204.172 212.434H191.78V194.33H198.395L248.158 162.856V160.141H195.981V142.037H249.214M249.214 139.258H193.202V162.921H242.863L197.589 191.555H189V215.218H204.978L205.659 214.787L218.505 206.634V215.218H273.304V192.06H241.45L268.546 174.859L269.834 174.039V156.723C269.834 150.941 267.86 146.494 263.969 143.506C260.305 140.689 255.334 139.258 249.205 139.258H249.214Z" fill="#1D1D1B"/>
<path d="M189 215.218L193.633 219.85L195.022 218.461L193.633 215.218L190.39 213.828L189 215.218Z" fill="#1D1D1B"/>
<path d="M218.505 215.218L223.138 219.85L224.528 218.461L223.138 215.218L219.895 213.828L218.505 215.218Z" fill="#1D1D1B"/>
<path d="M193.633 219.852L198.266 224.484L199.656 223.094L198.266 219.852H193.633Z" fill="#6551F3"/>
<path d="M223.139 219.852L227.771 224.484L229.161 223.094L227.771 219.852H223.139Z" fill="#6551F3"/>
<path d="M198.266 224.484L202.898 229.117L205.015 226.944L202.898 224.484H198.266Z" fill="#9F93F8"/>
<path d="M227.775 224.484L232.408 229.117L234.525 226.944L232.408 224.484H227.775Z" fill="#9F93F8"/>
<path d="M363.971 215.219L368.603 219.851L370.104 219.282L369.933 215.219H363.971Z" fill="#1D1D1B"/>
<path d="M368.605 219.852L373.238 224.484H375.272V219.852H368.605Z" fill="#6551F3"/>
<path d="M373.236 224.484L377.869 229.117H379.787L380.023 224.484H373.236Z" fill="#9F93F8"/>
<path d="M408.735 215.219L413.368 219.851H415.054L414.693 215.219H408.735Z" fill="#1D1D1B"/>
<path d="M413.369 219.852L418.001 224.484H420.98V221.705V219.852H413.369Z" fill="#6551F3"/>
<path d="M418.001 224.484H424.033L422.634 229.117L418.001 224.484Z" fill="#9F93F8"/>
<path d="M359.012 191.555L363.645 196.187H357.164L359.012 191.555Z" fill="#1D1D1B"/>
<path d="M193.202 162.922L197.835 167.554H199.655L199.396 162.922H193.202Z" fill="#1D1D1B"/>
<path d="M197.834 167.555L202.467 172.187H203.76L204.478 167.555H197.834Z" fill="#6551F3"/>
<path d="M202.467 172.188L207.099 176.82H209.147V172.188H202.467Z" fill="#9F93F8"/>
</g>
</g>
<path d="M342.443 244.546C346.454 244.546 349.278 247.666 349.278 252.897C349.278 258.097 346.454 261.247 342.443 261.247C339.946 261.247 338.252 259.999 337.212 258.246V260.891H334.627V239.375H337.212V247.547C338.252 245.794 339.946 244.546 342.443 244.546ZM341.908 259.048C344.85 259.048 346.633 256.492 346.633 252.897C346.633 249.301 344.85 246.715 341.908 246.715C338.966 246.715 337.064 249.271 337.064 252.897C337.064 256.522 338.966 259.048 341.908 259.048ZM351.655 264.665H352.874C354.33 264.665 355.192 264.516 355.756 263.001L356.559 260.891L350.467 244.902H353.23L357.837 257.562L362.443 244.902H365.207L358.074 263.565C357.361 265.467 356.291 266.834 353.468 266.834H351.655V264.665ZM385.083 260.891C384.994 260.088 384.934 259.583 384.905 258.573C383.746 260.237 381.873 261.247 379.377 261.247C376.851 261.247 373.731 260.177 373.731 256.671C373.731 253.55 376.197 251.53 381.814 251.53H384.905V251.232C384.905 249.301 384.786 246.656 380.982 246.656C378.04 246.656 377.029 248.261 376.732 249.954H374.147C374.533 246.804 376.673 244.546 381.101 244.546C386.272 244.546 387.49 247.637 387.49 250.935V257.533C387.49 258.662 387.549 259.94 387.668 260.891H385.083ZM380.001 259.137C382.468 259.137 384.964 257.949 384.964 253.491H382.081C378.159 253.491 376.376 254.472 376.376 256.433C376.376 258.186 377.772 259.137 380.001 259.137ZM391.16 239.375H394.37V242.525H391.16V239.375ZM391.457 244.902H394.043V260.891H391.457V244.902ZM397.864 239.375H400.45V252.272L407.582 244.902H410.821L404.729 251.173L411.386 260.891H408.354L402.976 253.015L400.45 255.601V260.891H397.864V239.375ZM413.536 239.375H416.745V242.525H413.536V239.375ZM413.833 244.902H416.418V260.891H413.833V244.902ZM434.552 239.375V260.891H431.966V258.246C430.926 259.999 429.232 261.247 426.706 261.247C422.724 261.247 419.901 258.097 419.901 252.897C419.901 247.666 422.724 244.546 426.706 244.546C429.232 244.546 430.926 245.794 431.966 247.547V239.375H434.552ZM427.271 259.048C430.183 259.048 432.115 256.522 432.115 252.897C432.115 249.271 430.183 246.715 427.271 246.715C424.329 246.715 422.546 249.301 422.546 252.897C422.546 256.492 424.329 259.048 427.271 259.048ZM444.918 261.247C440.252 261.247 437.399 258.008 437.399 252.897C437.399 247.785 440.252 244.546 444.918 244.546C449.554 244.546 452.436 247.785 452.436 252.897C452.436 258.008 449.554 261.247 444.918 261.247ZM444.918 259.048C447.979 259.048 449.791 256.76 449.791 252.897C449.791 249.033 447.979 246.715 444.918 246.715C441.857 246.715 440.044 249.033 440.044 252.897C440.044 256.76 441.857 259.048 444.918 259.048Z" fill="white" fill-opacity="0.7"/>
</g>
<path d="M727.272 175.912H712.04V217H706.216V175.912H690.92V170.664H727.272V175.912ZM750.37 181.8C758.626 181.8 762.21 187.176 762.21 194.664V217H756.642V196.008C756.642 190.568 754.786 186.472 748.898 186.472C742.306 186.472 739.106 191.592 739.106 198.312V217H733.538V170.664H739.106V188.008C741.666 183.336 745.954 181.8 750.37 181.8ZM784.319 181.8C795.007 181.8 801.023 189.736 800.447 201.32H773.503C774.015 208.232 777.855 213.032 784.447 213.032C789.567 213.032 793.343 210.152 794.431 205.8H800.127C798.591 213.608 792.447 217.768 784.447 217.768C773.951 217.768 767.743 210.536 767.743 199.784C767.743 189.032 774.143 181.8 784.319 181.8ZM794.559 197.032C794.431 191.848 791.231 186.472 784.127 186.472C777.855 186.472 774.335 190.696 773.567 197.032H794.559ZM822.413 170.664H829.325V177.448H822.413V170.664ZM823.053 182.568H828.621V217H823.053V182.568ZM853.808 181.8C862.064 181.8 865.648 187.176 865.648 194.664V217H860.08V196.008C860.08 190.568 858.224 186.472 852.336 186.472C845.744 186.472 842.544 191.592 842.544 198.312V217H836.976V182.568H842.544V188.008C845.104 183.336 849.392 181.8 853.808 181.8ZM872.959 196.584H892.799V201.576H872.959V196.584ZM923.638 217C923.446 215.272 923.318 214.184 923.254 212.008C920.758 215.592 916.726 217.768 911.35 217.768C905.91 217.768 899.19 215.464 899.19 207.912C899.19 201.192 904.502 196.84 916.598 196.84H923.254V196.2C923.254 192.04 922.998 186.344 914.806 186.344C908.47 186.344 906.294 189.8 905.654 193.448H900.086C900.918 186.664 905.526 181.8 915.062 181.8C926.198 181.8 928.822 188.456 928.822 195.56V209.768C928.822 212.2 928.95 214.952 929.206 217H923.638ZM912.694 213.224C918.006 213.224 923.382 210.664 923.382 201.064H917.174C908.726 201.064 904.885 203.176 904.885 207.4C904.885 211.176 907.894 213.224 912.694 213.224ZM953.933 181.8C962.573 181.8 968.653 188.52 968.653 199.784C968.653 210.984 962.573 217.768 953.933 217.768C948.557 217.768 944.909 215.08 942.669 211.304V229.8H937.101V182.568H942.669V188.264C944.909 184.488 948.557 181.8 953.933 181.8ZM952.781 213.032C959.117 213.032 962.957 207.528 962.957 199.784C962.957 192.04 959.117 186.472 952.781 186.472C946.445 186.472 942.349 191.976 942.349 199.784C942.349 207.592 946.445 213.032 952.781 213.032ZM991.745 181.8C1000.39 181.8 1006.47 188.52 1006.47 199.784C1006.47 210.984 1000.39 217.768 991.745 217.768C986.369 217.768 982.721 215.08 980.481 211.304V229.8H974.913V182.568H980.481V188.264C982.721 184.488 986.369 181.8 991.745 181.8ZM990.593 213.032C996.929 213.032 1000.77 207.528 1000.77 199.784C1000.77 192.04 996.929 186.472 990.593 186.472C984.257 186.472 980.161 191.976 980.161 199.784C980.161 207.592 984.257 213.032 990.593 213.032ZM1030.14 179.88C1030.14 174.44 1031.93 170.664 1039.42 170.664H1043.2V175.208H1040.96C1036.73 175.208 1035.71 176.232 1035.71 180.072V182.568H1042.81V187.112H1035.71V217H1030.14V187.112H1025.15V182.568H1030.14V179.88ZM1055.23 170.664V177.448H1048.32V170.664H1055.23ZM1048.96 182.568H1054.53V217H1048.96V182.568ZM1077.76 182.184C1078.53 182.184 1079.23 182.248 1079.94 182.376V187.944C1079.17 187.816 1078.27 187.752 1077.51 187.752C1068.55 187.752 1068.42 196.072 1068.42 201.192V217H1062.85V182.568H1068.35V188.136C1070.27 184.36 1073.35 182.184 1077.76 182.184ZM1099.63 181.8C1110.32 181.8 1116.34 189.736 1115.76 201.32H1088.82C1089.33 208.232 1093.17 213.032 1099.76 213.032C1104.88 213.032 1108.66 210.152 1109.74 205.8H1115.44C1113.9 213.608 1107.76 217.768 1099.76 217.768C1089.26 217.768 1083.06 210.536 1083.06 199.784C1083.06 189.032 1089.46 181.8 1099.63 181.8ZM1109.87 197.032C1109.74 191.848 1106.54 186.472 1099.44 186.472C1093.17 186.472 1089.65 190.696 1088.88 197.032H1109.87ZM1118.97 182.568H1124.92L1131.83 208.552L1139.51 182.568H1144.89L1152.63 208.552L1159.55 182.568H1165.43L1155.39 217H1150.07L1142.2 190.44L1134.39 217H1129.02L1118.97 182.568ZM1193.08 217C1192.88 215.272 1192.76 214.184 1192.69 212.008C1190.2 215.592 1186.16 217.768 1180.79 217.768C1175.35 217.768 1168.63 215.464 1168.63 207.912C1168.63 201.192 1173.94 196.84 1186.04 196.84H1192.69V196.2C1192.69 192.04 1192.44 186.344 1184.24 186.344C1177.91 186.344 1175.73 189.8 1175.09 193.448H1169.52C1170.36 186.664 1174.96 181.8 1184.5 181.8C1195.64 181.8 1198.26 188.456 1198.26 195.56V209.768C1198.26 212.2 1198.39 214.952 1198.64 217H1193.08ZM1182.13 213.224C1187.44 213.224 1192.82 210.664 1192.82 201.064H1186.61C1178.16 201.064 1174.32 203.176 1174.32 207.4C1174.32 211.176 1177.33 213.224 1182.13 213.224ZM1206.67 170.664H1212.24V217H1206.67V170.664ZM1221.17 170.664H1226.74V217H1221.17V170.664ZM1263.21 175.208C1258.98 175.208 1257.96 176.232 1257.96 180.072V182.568H1265.06V187.112H1257.96V217H1252.39V187.112H1247.4V182.568H1252.39V179.88C1252.39 174.44 1254.18 170.664 1261.67 170.664H1265.45V175.208H1263.21ZM1283.31 217.768C1273.26 217.768 1267.12 210.792 1267.12 199.784C1267.12 188.776 1273.26 181.8 1283.31 181.8C1293.29 181.8 1299.5 188.776 1299.5 199.784C1299.5 210.792 1293.29 217.768 1283.31 217.768ZM1283.31 213.032C1289.9 213.032 1293.81 208.104 1293.81 199.784C1293.81 191.464 1289.9 186.472 1283.31 186.472C1276.72 186.472 1272.81 191.464 1272.81 199.784C1272.81 208.104 1276.72 213.032 1283.31 213.032ZM1320.51 182.184C1321.28 182.184 1321.98 182.248 1322.69 182.376V187.944C1321.92 187.816 1321.02 187.752 1320.26 187.752C1311.3 187.752 1311.17 196.072 1311.17 201.192V217H1305.6V182.568H1311.1V188.136C1313.02 184.36 1316.1 182.184 1320.51 182.184ZM1359.5 181.8C1368.14 181.8 1374.22 188.52 1374.22 199.784C1374.22 210.984 1368.14 217.768 1359.5 217.768C1354.12 217.768 1350.47 215.08 1348.23 211.304V229.8H1342.66V182.568H1348.23V188.264C1350.47 184.488 1354.12 181.8 1359.5 181.8ZM1358.34 213.032C1364.68 213.032 1368.52 207.528 1368.52 199.784C1368.52 192.04 1364.68 186.472 1358.34 186.472C1352.01 186.472 1347.91 191.976 1347.91 199.784C1347.91 207.592 1352.01 213.032 1358.34 213.032ZM1395.88 181.8C1406.57 181.8 1412.59 189.736 1412.01 201.32H1385.07C1385.58 208.232 1389.42 213.032 1396.01 213.032C1401.13 213.032 1404.91 210.152 1405.99 205.8H1411.69C1410.15 213.608 1404.01 217.768 1396.01 217.768C1385.51 217.768 1379.31 210.536 1379.31 199.784C1379.31 189.032 1385.71 181.8 1395.88 181.8ZM1406.12 197.032C1405.99 191.848 1402.79 186.472 1395.69 186.472C1389.42 186.472 1385.9 190.696 1385.13 197.032H1406.12ZM1441.26 217C1441.07 215.272 1440.94 214.184 1440.88 212.008C1438.38 215.592 1434.35 217.768 1428.97 217.768C1423.53 217.768 1416.81 215.464 1416.81 207.912C1416.81 201.192 1422.13 196.84 1434.22 196.84H1440.88V196.2C1440.88 192.04 1440.62 186.344 1432.43 186.344C1426.09 186.344 1423.92 189.8 1423.28 193.448H1417.71C1418.54 186.664 1423.15 181.8 1432.69 181.8C1443.82 181.8 1446.45 188.456 1446.45 195.56V209.768C1446.45 212.2 1446.57 214.952 1446.83 217H1441.26ZM1430.32 213.224C1435.63 213.224 1441.01 210.664 1441.01 201.064H1434.8C1426.35 201.064 1422.51 203.176 1422.51 207.4C1422.51 211.176 1425.52 213.224 1430.32 213.224ZM1468.62 217.768C1458.32 217.768 1452.37 210.536 1452.37 199.784C1452.37 189.032 1458.32 181.8 1468.62 181.8C1476.5 181.8 1482 186.024 1483.6 193.768H1477.84C1476.69 189.352 1473.55 186.472 1468.43 186.472C1461.26 186.472 1458.06 191.976 1458.06 199.784C1458.06 207.528 1461.26 213.032 1468.43 213.032C1473.74 213.032 1476.69 210.152 1477.84 205.8H1483.6C1482 213.544 1476.5 217.768 1468.62 217.768ZM1504.44 181.8C1515.13 181.8 1521.15 189.736 1520.57 201.32H1493.63C1494.14 208.232 1497.98 213.032 1504.57 213.032C1509.69 213.032 1513.47 210.152 1514.56 205.8H1520.25C1518.72 213.608 1512.57 217.768 1504.57 217.768C1494.08 217.768 1487.87 210.536 1487.87 199.784C1487.87 189.032 1494.27 181.8 1504.44 181.8ZM1514.68 197.032C1514.56 191.848 1511.36 186.472 1504.25 186.472C1497.98 186.472 1494.46 190.696 1493.69 197.032H1514.68ZM1556.81 217.768C1546.76 217.768 1540.62 210.792 1540.62 199.784C1540.62 188.776 1546.76 181.8 1556.81 181.8C1566.79 181.8 1573 188.776 1573 199.784C1573 210.792 1566.79 217.768 1556.81 217.768ZM1556.81 213.032C1563.4 213.032 1567.31 208.104 1567.31 199.784C1567.31 191.464 1563.4 186.472 1556.81 186.472C1550.22 186.472 1546.31 191.464 1546.31 199.784C1546.31 208.104 1550.22 213.032 1556.81 213.032ZM1591.58 175.208C1587.36 175.208 1586.34 176.232 1586.34 180.072V182.568H1593.44V187.112H1586.34V217H1580.77V187.112H1575.78V182.568H1580.77V179.88C1580.77 174.44 1582.56 170.664 1590.05 170.664H1593.82V175.208H1591.58ZM1650.86 181.8C1660.21 181.8 1662.38 189.224 1662.38 195.496V217H1656.81V195.432C1656.81 191.656 1655.79 186.472 1649.45 186.472C1642.61 186.472 1640.49 192.488 1640.49 197.736V217H1634.93V195.944C1634.93 191.784 1634.03 186.472 1627.69 186.472C1620.91 186.472 1618.61 192.488 1618.61 198.632V217H1613.04V182.568H1618.61V188.2C1620.72 184.04 1624.24 181.8 1629.29 181.8C1635.18 181.8 1638 184.872 1639.28 188.52C1641.77 184.232 1645.49 181.8 1650.86 181.8ZM1669.91 170.664H1676.83V177.448H1669.91V170.664ZM1670.55 182.568H1676.12V217H1670.55V182.568ZM1701.31 181.8C1709.56 181.8 1713.15 187.176 1713.15 194.664V217H1707.58V196.008C1707.58 190.568 1705.72 186.472 1699.84 186.472C1693.24 186.472 1690.04 191.592 1690.04 198.312V217H1684.48V182.568H1690.04V188.008C1692.6 183.336 1696.89 181.8 1701.31 181.8ZM1750.36 170.664V217H1744.79V211.304C1742.55 215.08 1738.9 217.768 1733.46 217.768C1724.89 217.768 1718.81 210.984 1718.81 199.784C1718.81 188.52 1724.89 181.8 1733.46 181.8C1738.9 181.8 1742.55 184.488 1744.79 188.264V170.664H1750.36ZM1734.68 213.032C1740.95 213.032 1745.11 207.592 1745.11 199.784C1745.11 191.976 1740.95 186.472 1734.68 186.472C1728.34 186.472 1724.5 192.04 1724.5 199.784C1724.5 207.528 1728.34 213.032 1734.68 213.032Z" fill="white"/>
<path d="M705.896 318.208C701.672 318.208 700.648 319.232 700.648 323.072V325.568H707.752V330.112H700.648V360H695.08V330.112H690.088V325.568H695.08V322.88C695.08 317.44 696.872 313.664 704.36 313.664H708.136V318.208H705.896ZM725.998 360.768C715.95 360.768 709.806 353.792 709.806 342.784C709.806 331.776 715.95 324.8 725.998 324.8C735.982 324.8 742.19 331.776 742.19 342.784C742.19 353.792 735.982 360.768 725.998 360.768ZM725.998 356.032C732.59 356.032 736.494 351.104 736.494 342.784C736.494 334.464 732.59 329.472 725.998 329.472C719.406 329.472 715.502 334.464 715.502 342.784C715.502 351.104 719.406 356.032 725.998 356.032ZM763.2 325.184C763.968 325.184 764.672 325.248 765.376 325.376V330.944C764.608 330.816 763.712 330.752 762.944 330.752C753.984 330.752 753.856 339.072 753.856 344.192V360H748.288V325.568H753.792V331.136C755.712 327.36 758.784 325.184 763.2 325.184Z" fill="white"/>
<rect x="810" y="283" width="104" height="104" rx="27.7333" fill="#80BD00"/>
<path d="M859.847 307.524C860.501 307.156 861.24 307 862 307C862.76 307 863.504 307.156 864.153 307.524L884.847 319.396C886.186 320.165 887 321.61 887 323.15V346.85C887 348.39 886.186 349.83 884.847 350.604L864.153 362.433C863.492 362.813 862.766 363 862 363C861.244 363 860.508 362.813 859.847 362.433L852.905 358.373C851.875 357.8 852.39 357.618 852.729 357.501C854.105 357.026 854.381 356.93 855.849 356.104C856.002 356.019 856.218 356.012 856.376 356.104L861.692 359.246C861.886 359.351 862.13 359.351 862.308 359.246L883.002 347.418C883.195 347.309 883.309 347.077 883.309 346.85V323.15C883.309 322.918 883.155 322.7 882.958 322.582L862.308 310.754C862.116 310.643 861.886 310.643 861.692 310.754L841.042 322.582C840.842 322.696 840.691 322.925 840.691 323.15V346.85C840.691 347.077 840.844 347.267 841.042 347.374L846.666 350.648C849.738 352.173 851.631 350.358 851.631 348.553V325.157C851.631 324.827 851.914 324.59 852.246 324.59H854.838C855.165 324.59 855.453 324.827 855.453 325.157V348.553C855.453 352.626 853.234 354.969 849.346 354.969L849.293 354.969C848.122 354.969 847.143 354.969 844.557 353.703L839.153 350.604C837.814 349.836 837 348.39 837 346.85V323.15C837 321.61 837.814 320.162 839.153 319.396L859.847 307.524Z" fill="#010024"/>
<path d="M858.134 330.57C858.134 326.427 861.643 323.936 867.536 323.936C874.158 323.936 877.446 326.239 877.861 331.138C877.877 331.307 877.798 331.448 877.685 331.574C877.571 331.692 877.411 331.792 877.246 331.792H874.566C874.288 331.792 874.051 331.579 873.995 331.312C873.352 328.468 871.782 327.558 867.536 327.558C862.782 327.558 862.264 329.207 862.264 330.439C862.264 331.932 862.875 332.345 869.294 333.189C875.645 334.023 878.696 335.214 878.696 339.649C878.696 344.123 874.919 346.676 868.371 346.676C859.325 346.676 857.431 342.585 857.431 339.125C857.431 338.796 857.715 338.514 858.046 338.514H860.726C861.025 338.514 861.25 338.748 861.297 339.038C861.7 341.741 862.902 343.097 868.371 343.097C872.724 343.097 874.566 342.118 874.566 339.823C874.566 338.5 874.039 337.513 867.272 336.855C861.617 336.299 858.134 335.065 858.134 330.57Z" fill="#010024"/>
<path d="M980.624 313.664V360H973.072L949.008 321.216V360H943.184V313.664H950.8L974.8 352.384V313.664H980.624ZM1004.37 360.768C994.325 360.768 988.181 353.792 988.181 342.784C988.181 331.776 994.325 324.8 1004.37 324.8C1014.36 324.8 1020.56 331.776 1020.56 342.784C1020.56 353.792 1014.36 360.768 1004.37 360.768ZM1004.37 356.032C1010.96 356.032 1014.87 351.104 1014.87 342.784C1014.87 334.464 1010.96 329.472 1004.37 329.472C997.781 329.472 993.877 334.464 993.877 342.784C993.877 351.104 997.781 356.032 1004.37 356.032ZM1057.17 313.664V360H1051.61V354.304C1049.37 358.08 1045.72 360.768 1040.28 360.768C1031.7 360.768 1025.62 353.984 1025.62 342.784C1025.62 331.52 1031.7 324.8 1040.28 324.8C1045.72 324.8 1049.37 327.488 1051.61 331.264V313.664H1057.17ZM1041.49 356.032C1047.77 356.032 1051.93 350.592 1051.93 342.784C1051.93 334.976 1047.77 329.472 1041.49 329.472C1035.16 329.472 1031.32 335.04 1031.32 342.784C1031.32 350.528 1035.16 356.032 1041.49 356.032ZM1079.88 324.8C1090.57 324.8 1096.59 332.736 1096.01 344.32H1069.07C1069.58 351.232 1073.42 356.032 1080.01 356.032C1085.13 356.032 1088.91 353.152 1089.99 348.8H1095.69C1094.15 356.608 1088.01 360.768 1080.01 360.768C1069.51 360.768 1063.31 353.536 1063.31 342.784C1063.31 332.032 1069.71 324.8 1079.88 324.8ZM1090.12 340.032C1089.99 334.848 1086.79 329.472 1079.69 329.472C1073.42 329.472 1069.9 333.696 1069.13 340.032H1090.12ZM1101.9 352.704H1109.07V360H1101.9V352.704ZM1115.76 313.664H1122.61V320.448H1115.76V313.664ZM1110.7 368.256H1111.79C1114.8 368.256 1116.4 368 1116.4 364.16V325.568H1121.97V364.864C1121.97 370.944 1118.7 372.8 1113.2 372.8H1110.7V368.256ZM1143.77 360.768C1133.92 360.768 1128.86 355.456 1128.22 348.928H1133.79C1134.75 352.576 1137.18 356.16 1143.84 356.16C1149.98 356.16 1152.16 353.088 1152.16 350.528C1152.16 346.688 1147.61 345.728 1142.62 344.768C1137.24 343.68 1128.99 342.08 1128.99 334.592C1128.99 328.32 1135 324.8 1142.49 324.8C1151.9 324.8 1156.38 330.24 1157.02 335.296H1151.39C1150.62 332.8 1148.7 329.408 1142.3 329.408C1136.99 329.408 1134.62 331.776 1134.62 334.4C1134.62 338.112 1139.48 339.136 1144.6 340.224C1151.2 341.568 1157.79 343.296 1157.79 349.952C1157.79 355.328 1153.69 360.768 1143.77 360.768Z" fill="white"/>
<path d="M584.592 342.792L590.016 338.472C591.744 337.096 592.608 335.656 592.608 334.152V333.912C592.608 333.304 592.384 332.792 591.936 332.376C591.52 331.928 590.896 331.704 590.064 331.704C589.232 331.704 588.56 331.944 588.048 332.424C587.568 332.872 587.168 333.512 586.848 334.344L584.304 333.288C584.656 332.2 585.312 331.256 586.272 330.456C587.264 329.624 588.608 329.208 590.304 329.208C592.128 329.208 593.488 329.672 594.384 330.6C595.312 331.496 595.776 332.584 595.776 333.864C595.776 335.208 595.344 336.392 594.48 337.416C593.648 338.44 592.64 339.416 591.456 340.344L587.76 343.176H596.4V345.576H584.592V342.792Z" fill="#6551F3"/>
<path d="M590.064 494.864C588.4 494.864 587.104 494.528 586.176 493.856C585.248 493.152 584.528 492.352 584.016 491.456L586.272 489.872C586.656 490.608 587.12 491.216 587.664 491.696C588.24 492.176 589.04 492.416 590.064 492.416C590.992 492.416 591.712 492.208 592.224 491.792C592.768 491.344 593.04 490.752 593.04 490.016V489.68C593.04 488.944 592.752 488.4 592.176 488.048C591.6 487.664 590.784 487.472 589.728 487.472H588.048V485.072H589.728C590.752 485.072 591.504 484.88 591.984 484.496C592.496 484.112 592.752 483.648 592.752 483.104V482.768C592.752 482.128 592.512 481.616 592.032 481.232C591.552 480.848 590.896 480.656 590.064 480.656C588.56 480.656 587.408 481.312 586.608 482.624L584.592 480.992C585.168 480.16 585.888 479.488 586.752 478.976C587.616 478.464 588.752 478.208 590.16 478.208C591.888 478.208 593.264 478.592 594.288 479.36C595.312 480.096 595.824 481.104 595.824 482.384C595.824 483.44 595.488 484.288 594.816 484.928C594.176 485.536 593.392 485.92 592.464 486.08V486.272C593.488 486.432 594.352 486.832 595.056 487.472C595.76 488.112 596.112 488.992 596.112 490.112C596.112 491.552 595.552 492.704 594.432 493.568C593.344 494.432 591.888 494.864 590.064 494.864Z" fill="#6551F3"/>
<path d="M585.072 194.176H589.584V183.136L585.312 185.296L584.16 183.184L589.344 180.496H592.608V194.176H596.592V196.576H585.072V194.176Z" fill="#6551F3"/>
<path d="M721.256 514.296L734.76 500.856H694.12V468.664H699.432V495.928H734.76L721.256 482.424L724.84 478.84L744.36 498.36L724.84 517.88L721.256 514.296Z" fill="white"/>
<path d="M1764.2 519C1764.01 517.272 1763.88 516.184 1763.82 514.008C1761.32 517.592 1757.29 519.768 1751.91 519.768C1746.47 519.768 1739.75 517.464 1739.75 509.912C1739.75 503.192 1745.06 498.84 1757.16 498.84H1763.82V498.2C1763.82 494.04 1763.56 488.344 1755.37 488.344C1749.03 488.344 1746.86 491.8 1746.22 495.448H1740.65C1741.48 488.664 1746.09 483.8 1755.62 483.8C1766.76 483.8 1769.38 490.456 1769.38 497.56V511.768C1769.38 514.2 1769.51 516.952 1769.77 519H1764.2ZM1753.26 515.224C1758.57 515.224 1763.94 512.664 1763.94 503.064H1757.74C1749.29 503.064 1745.45 505.176 1745.45 509.4C1745.45 513.176 1748.46 515.224 1753.26 515.224ZM1777.29 472.664H1784.2V479.448H1777.29V472.664ZM1777.93 484.568H1783.5V519H1777.93V484.568ZM1791.73 472.664H1797.29V500.44L1812.65 484.568H1819.63L1806.51 498.072L1820.85 519H1814.32L1802.73 502.04L1797.29 507.608V519H1791.73V472.664ZM1825.48 472.664H1832.39V479.448H1825.48V472.664ZM1826.12 484.568H1831.68V519H1826.12V484.568ZM1870.74 472.664V519H1865.17V513.304C1862.93 517.08 1859.28 519.768 1853.84 519.768C1845.26 519.768 1839.18 512.984 1839.18 501.784C1839.18 490.52 1845.26 483.8 1853.84 483.8C1859.28 483.8 1862.93 486.488 1865.17 490.264V472.664H1870.74ZM1855.06 515.032C1861.33 515.032 1865.49 509.592 1865.49 501.784C1865.49 493.976 1861.33 488.472 1855.06 488.472C1848.72 488.472 1844.88 494.04 1844.88 501.784C1844.88 509.528 1848.72 515.032 1855.06 515.032ZM1893.06 519.768C1883.01 519.768 1876.87 512.792 1876.87 501.784C1876.87 490.776 1883.01 483.8 1893.06 483.8C1903.04 483.8 1909.25 490.776 1909.25 501.784C1909.25 512.792 1903.04 519.768 1893.06 519.768ZM1893.06 515.032C1899.65 515.032 1903.56 510.104 1903.56 501.784C1903.56 493.464 1899.65 488.472 1893.06 488.472C1886.47 488.472 1882.56 493.464 1882.56 501.784C1882.56 510.104 1886.47 515.032 1893.06 515.032ZM1914.27 511.704H1921.44V519H1914.27V511.704ZM1958.3 472.664V519H1952.73V513.304C1950.49 517.08 1946.84 519.768 1941.4 519.768C1932.83 519.768 1926.75 512.984 1926.75 501.784C1926.75 490.52 1932.83 483.8 1941.4 483.8C1946.84 483.8 1950.49 486.488 1952.73 490.264V472.664H1958.3ZM1942.62 515.032C1948.89 515.032 1953.05 509.592 1953.05 501.784C1953.05 493.976 1948.89 488.472 1942.62 488.472C1936.28 488.472 1932.44 494.04 1932.44 501.784C1932.44 509.528 1936.28 515.032 1942.62 515.032ZM1981.01 483.8C1991.69 483.8 1997.71 491.736 1997.13 503.32H1970.19C1970.7 510.232 1974.54 515.032 1981.13 515.032C1986.25 515.032 1990.03 512.152 1991.12 507.8H1996.81C1995.28 515.608 1989.13 519.768 1981.13 519.768C1970.64 519.768 1964.43 512.536 1964.43 501.784C1964.43 491.032 1970.83 483.8 1981.01 483.8ZM1991.25 499.032C1991.12 493.848 1987.92 488.472 1980.81 488.472C1974.54 488.472 1971.02 492.696 1970.25 499.032H1991.25ZM2000.02 484.568H2006.1L2015.7 512.152L2025.3 484.568H2031.32L2018.58 519H2012.76L2000.02 484.568ZM2050.41 472.664H2056.17L2037.48 519H2031.72L2050.41 472.664ZM2084.21 514.264V519H2056.37V514.328L2076.79 489.24H2057.65V484.568H2083.63V489.176L2063.28 514.264H2084.21ZM2104.69 483.8C2115.38 483.8 2121.4 491.736 2120.82 503.32H2093.88C2094.39 510.232 2098.23 515.032 2104.82 515.032C2109.94 515.032 2113.72 512.152 2114.81 507.8H2120.5C2118.97 515.608 2112.82 519.768 2104.82 519.768C2094.33 519.768 2088.12 512.536 2088.12 501.784C2088.12 491.032 2094.52 483.8 2104.69 483.8ZM2114.93 499.032C2114.81 493.848 2111.61 488.472 2104.5 488.472C2098.23 488.472 2094.71 492.696 2093.94 499.032H2114.93ZM2144.37 483.8C2152.63 483.8 2156.21 489.176 2156.21 496.664V519H2150.64V498.008C2150.64 492.568 2148.79 488.472 2142.9 488.472C2136.31 488.472 2133.11 493.592 2133.11 500.312V519H2127.54V484.568H2133.11V490.008C2135.67 485.336 2139.95 483.8 2144.37 483.8Z" fill="white" fill-opacity="0.8"/>
<g clip-path="url(#clip2_33983_88661)">
<rect x="32.5" y="32.5" width="2215" height="625" rx="31.5" fill="#141031" stroke="#3D3192"/>
<g opacity="0.4" filter="url(#filter1_f_33983_88661)">
<ellipse cx="1140" cy="345" rx="506" ry="262" fill="#6551F3"/>
</g>
<circle cx="1139.52" cy="344.515" r="119.145" fill="white" fill-opacity="0.01" stroke="#A397F8" stroke-width="0.614783"/>
<circle cx="1139.51" cy="344.506" r="238.905" fill="white" fill-opacity="0.01"/>
<circle cx="1139.51" cy="344.506" r="238.597" stroke="#A397F8" stroke-opacity="0.9" stroke-width="0.614783"/>
<circle cx="1139.54" cy="344.537" r="358.357" fill="white" fill-opacity="0.01"/>
<circle cx="1139.54" cy="344.537" r="358.05" stroke="#A397F8" stroke-opacity="0.8" stroke-width="0.614783"/>
<circle cx="1139.53" cy="344.528" r="477.81" fill="white" fill-opacity="0.01"/>
<circle cx="1139.53" cy="344.528" r="477.502" stroke="#A397F8" stroke-opacity="0.7" stroke-width="0.614783"/>
<circle cx="1139.52" cy="344.527" r="597.262" fill="white" fill-opacity="0.01"/>
<circle cx="1139.52" cy="344.527" r="596.954" stroke="#A397F8" stroke-opacity="0.6" stroke-width="0.614783"/>
<circle cx="1139.52" cy="344.519" r="716.714" fill="white" fill-opacity="0.01"/>
<circle cx="1139.52" cy="344.519" r="716.407" stroke="#A397F8" stroke-opacity="0.5" stroke-width="0.614783"/>
<circle cx="1139.51" cy="344.51" r="836.167" fill="white" fill-opacity="0.01"/>
<circle cx="1139.51" cy="344.51" r="835.859" stroke="#A397F8" stroke-opacity="0.4" stroke-width="0.614783"/>
<circle cx="1139.54" cy="344.541" r="955.619" fill="white" fill-opacity="0.01"/>
<circle cx="1139.54" cy="344.541" r="955.312" stroke="#A397F8" stroke-opacity="0.3" stroke-width="0.614783"/>
<circle cx="1139.53" cy="344.532" r="1075.07" fill="white" fill-opacity="0.01"/>
<circle cx="1139.53" cy="344.532" r="1074.76" stroke="#A397F8" stroke-opacity="0.2" stroke-width="0.614783"/>
<circle cx="1139.52" cy="344.524" r="1194.52" fill="white" fill-opacity="0.01"/>
<circle cx="1139.52" cy="344.524" r="1194.22" stroke="#A397F8" stroke-opacity="0.1" stroke-width="0.614783"/>
<path d="M653.64 321.228C667.197 321.228 673.83 326.549 673.83 337.045C673.83 347.541 667.197 352.789 653.64 352.789H641.176V374H634.543V321.228H653.64ZM653.494 346.885C662.969 346.885 666.978 343.751 666.978 337.045C666.978 330.34 662.969 327.132 653.494 327.132H641.176V346.885H653.494ZM697.413 334.348C698.288 334.348 699.09 334.421 699.892 334.567V340.908C699.017 340.763 697.996 340.69 697.122 340.69C686.917 340.69 686.772 350.165 686.772 355.996V374H680.43V334.786H686.699V341.127C688.885 336.827 692.384 334.348 697.413 334.348ZM722.32 333.911C734.492 333.911 741.344 342.949 740.688 356.142H710.001C710.585 364.014 714.958 369.481 722.465 369.481C728.297 369.481 732.597 366.201 733.836 361.244H740.323C738.574 370.137 731.577 374.875 722.465 374.875C710.512 374.875 703.441 366.638 703.441 354.393C703.441 342.148 710.73 333.911 722.32 333.911ZM733.982 351.259C733.836 345.355 730.192 339.232 722.101 339.232C714.958 339.232 710.949 344.043 710.074 351.259H733.982ZM743.977 334.786H750.901L761.835 366.201L772.768 334.786H779.619L765.115 374H758.482L743.977 334.786ZM801.188 333.911C813.36 333.911 820.212 342.949 819.556 356.142H788.87C789.453 364.014 793.826 369.481 801.334 369.481C807.165 369.481 811.465 366.201 812.704 361.244H819.191C817.442 370.137 810.445 374.875 801.334 374.875C789.38 374.875 782.31 366.638 782.31 354.393C782.31 342.148 789.598 333.911 801.188 333.911ZM812.85 351.259C812.704 345.355 809.06 339.232 800.969 339.232C793.826 339.232 789.817 344.043 788.942 351.259H812.85ZM846.374 333.911C855.777 333.911 859.859 340.034 859.859 348.562V374H853.517V350.092C853.517 343.897 851.404 339.232 844.698 339.232C837.19 339.232 833.546 345.063 833.546 352.716V374H827.205V334.786H833.546V340.981C836.461 335.66 841.345 333.911 846.374 333.911ZM886.35 368.606V374H881.248C874.98 374 871.262 372.396 871.262 364.743V339.888H864.702V334.786H871.262V325.602H877.604V334.786H885.84V339.888H877.604V363.577C877.604 367.294 878.697 368.606 882.196 368.606H886.35ZM952.922 333.911C963.564 333.911 966.042 342.366 966.042 349.509V374H959.701V349.436C959.701 345.136 958.535 339.232 951.319 339.232C943.52 339.232 941.114 346.084 941.114 352.06V374H934.773V350.02C934.773 345.282 933.753 339.232 926.537 339.232C918.81 339.232 916.186 346.084 916.186 353.081V374H909.845V334.786H916.186V341.2C918.592 336.462 922.601 333.911 928.359 333.911C935.065 333.911 938.272 337.41 939.73 341.564C942.572 336.681 946.8 333.911 952.922 333.911ZM1001.14 374C1000.92 372.032 1000.78 370.793 1000.7 368.315C997.861 372.396 993.269 374.875 987.146 374.875C980.951 374.875 973.297 372.251 973.297 363.65C973.297 355.996 979.347 351.04 993.123 351.04H1000.7V350.311C1000.7 345.573 1000.41 339.086 991.082 339.086C983.866 339.086 981.388 343.022 980.659 347.177H974.318C975.265 339.451 980.513 333.911 991.374 333.911C1004.06 333.911 1007.04 341.492 1007.04 349.582V365.764C1007.04 368.533 1007.19 371.668 1007.48 374H1001.14ZM988.677 369.7C994.727 369.7 1000.85 366.784 1000.85 355.851H993.779C984.158 355.851 979.784 358.256 979.784 363.067C979.784 367.367 983.21 369.7 988.677 369.7ZM1016.62 321.228H1022.96V374H1016.62V321.228ZM1029.28 334.786H1036.06L1043.93 364.379L1052.68 334.786H1058.8L1067.62 364.379L1075.49 334.786H1082.2L1070.75 374H1064.7L1055.74 343.751L1046.84 374H1040.72L1029.28 334.786ZM1113.68 374C1113.46 372.032 1113.31 370.793 1113.24 368.315C1110.4 372.396 1105.81 374.875 1099.68 374.875C1093.49 374.875 1085.83 372.251 1085.83 363.65C1085.83 355.996 1091.88 351.04 1105.66 351.04H1113.24V350.311C1113.24 345.573 1112.95 339.086 1103.62 339.086C1096.4 339.086 1093.92 343.022 1093.2 347.177H1086.85C1087.8 339.451 1093.05 333.911 1103.91 333.911C1116.59 333.911 1119.58 341.492 1119.58 349.582V365.764C1119.58 368.533 1119.73 371.668 1120.02 374H1113.68ZM1101.21 369.7C1107.26 369.7 1113.39 366.784 1113.39 355.851H1106.32C1096.69 355.851 1092.32 358.256 1092.32 363.067C1092.32 367.367 1095.75 369.7 1101.21 369.7ZM1145.99 334.348C1146.87 334.348 1147.67 334.421 1148.47 334.567V340.908C1147.6 340.763 1146.58 340.69 1145.7 340.69C1135.5 340.69 1135.35 350.165 1135.35 355.996V374H1129.01V334.786H1135.28V341.127C1137.47 336.827 1140.96 334.348 1145.99 334.348ZM1170.9 333.911C1183.07 333.911 1189.92 342.949 1189.27 356.142H1158.58C1159.16 364.014 1163.54 369.481 1171.05 369.481C1176.88 369.481 1181.18 366.201 1182.42 361.244H1188.9C1187.15 370.137 1180.16 374.875 1171.05 374.875C1159.09 374.875 1152.02 366.638 1152.02 354.393C1152.02 342.148 1159.31 333.911 1170.9 333.911ZM1182.56 351.259C1182.42 345.355 1178.77 339.232 1170.68 339.232C1163.54 339.232 1159.53 344.043 1158.65 351.259H1182.56ZM1248.18 321.228V374H1241.84V367.513C1239.29 371.813 1235.13 374.875 1228.94 374.875C1219.17 374.875 1212.24 367.148 1212.24 354.393C1212.24 341.564 1219.17 333.911 1228.94 333.911C1235.13 333.911 1239.29 336.972 1241.84 341.273V321.228H1248.18ZM1230.32 369.481C1237.46 369.481 1242.2 363.285 1242.2 354.393C1242.2 345.5 1237.46 339.232 1230.32 339.232C1223.1 339.232 1218.73 345.573 1218.73 354.393C1218.73 363.212 1223.1 369.481 1230.32 369.481ZM1290.43 334.786V374H1284.09V367.804C1281.17 373.125 1276.29 374.875 1271.26 374.875C1261.85 374.875 1257.77 368.752 1257.77 360.224V334.786H1264.11V358.693C1264.11 364.816 1266.23 369.481 1272.93 369.481C1280.44 369.481 1284.09 363.723 1284.09 356.069V334.786H1290.43ZM1317.18 334.348C1318.06 334.348 1318.86 334.421 1319.66 334.567V340.908C1318.79 340.763 1317.77 340.69 1316.89 340.69C1306.69 340.69 1306.54 350.165 1306.54 355.996V374H1300.2V334.786H1306.47V341.127C1308.65 336.827 1312.15 334.348 1317.18 334.348ZM1325.4 321.228H1333.27V328.955H1325.4V321.228ZM1326.13 334.786H1332.47V374H1326.13V334.786ZM1361.15 333.911C1370.55 333.911 1374.64 340.034 1374.64 348.562V374H1368.3V350.092C1368.3 343.897 1366.18 339.232 1359.48 339.232C1351.97 339.232 1348.32 345.063 1348.32 352.716V374H1341.98V334.786H1348.32V340.981C1351.24 335.66 1356.12 333.911 1361.15 333.911ZM1417.09 334.786V373.563C1417.09 383.257 1410.9 389.452 1399.6 389.452C1389.83 389.452 1384.15 384.788 1383.2 377.28H1389.54C1390.56 381.872 1394.28 384.132 1399.82 384.132C1406.81 384.132 1410.75 380.56 1410.75 373.708V366.638C1408.2 370.793 1404.04 373.636 1397.92 373.636C1388.15 373.636 1381.16 366.565 1381.16 353.81C1381.16 341.054 1388.15 333.911 1397.92 333.911C1404.04 333.911 1408.2 336.754 1410.75 340.908V334.786H1417.09ZM1399.23 368.315C1406.45 368.315 1411.11 362.484 1411.11 353.81C1411.11 345.136 1406.45 339.232 1399.23 339.232C1392.02 339.232 1387.64 345.063 1387.64 353.81C1387.64 362.484 1392.02 368.315 1399.23 368.315ZM1444.06 321.228H1451.93V328.955H1444.06V321.228ZM1444.78 334.786H1451.13V374H1444.78V334.786ZM1479.81 333.911C1489.21 333.911 1493.29 340.034 1493.29 348.562V374H1486.95V350.092C1486.95 343.897 1484.84 339.232 1478.13 339.232C1470.63 339.232 1466.98 345.063 1466.98 352.716V374H1460.64V334.786H1466.98V340.981C1469.9 335.66 1474.78 333.911 1479.81 333.911ZM1517.42 374.875C1506.2 374.875 1500.44 368.825 1499.71 361.39H1506.05C1507.15 365.545 1509.92 369.627 1517.5 369.627C1524.49 369.627 1526.97 366.128 1526.97 363.212C1526.97 358.839 1521.8 357.746 1516.11 356.652C1509.99 355.413 1500.59 353.591 1500.59 345.063C1500.59 337.92 1507.44 333.911 1515.97 333.911C1526.68 333.911 1531.78 340.107 1532.51 345.865H1526.1C1525.22 343.022 1523.04 339.159 1515.75 339.159C1509.7 339.159 1507 341.856 1507 344.844C1507 349.072 1512.54 350.238 1518.37 351.477C1525.88 353.008 1533.39 354.976 1533.39 362.556C1533.39 368.679 1528.72 374.875 1517.42 374.875ZM1558.51 368.606V374H1553.41C1547.14 374 1543.42 372.396 1543.42 364.743V339.888H1536.86V334.786H1543.42V325.602H1549.76V334.786H1558V339.888H1549.76V363.577C1549.76 367.294 1550.86 368.606 1554.35 368.606H1558.51ZM1591.44 374C1591.22 372.032 1591.08 370.793 1591 368.315C1588.16 372.396 1583.57 374.875 1577.45 374.875C1571.25 374.875 1563.6 372.251 1563.6 363.65C1563.6 355.996 1569.65 351.04 1583.42 351.04H1591V350.311C1591 345.573 1590.71 339.086 1581.38 339.086C1574.17 339.086 1571.69 343.022 1570.96 347.177H1564.62C1565.57 339.451 1570.81 333.911 1581.67 333.911C1594.36 333.911 1597.35 341.492 1597.35 349.582V365.764C1597.35 368.533 1597.49 371.668 1597.78 374H1591.44ZM1578.98 369.7C1585.03 369.7 1591.15 366.784 1591.15 355.851H1584.08C1574.46 355.851 1570.08 358.256 1570.08 363.067C1570.08 367.367 1573.51 369.7 1578.98 369.7ZM1606.92 321.228H1613.26V374H1606.92V321.228ZM1623.44 321.228H1629.78V374H1623.44V321.228ZM1639 365.691H1647.17V374H1639V365.691Z" fill="white" fill-opacity="0.8"/>
<rect x="457" y="123.711" width="344" height="86.5695" rx="43.2848" fill="#181435"/>
<rect x="457.57" y="124.28" width="342.861" height="85.4305" rx="42.7152" stroke="white" stroke-opacity="0.4" stroke-width="1.13907"/>
<path d="M506.797 187.955C494.334 187.955 489.956 180.825 489.394 174.65H494.727C495.962 180.769 500.229 183.464 506.853 183.464C514.824 183.464 516.789 179.366 516.789 176.166C516.789 171.226 512.242 170.159 507.246 168.98C500.004 167.352 490.742 165.388 490.742 156.799C490.742 150.343 496.018 145.964 505.281 145.964C513.646 145.964 519.147 149.557 520.55 156.855H515.105C514.095 152.588 510.558 150.455 505.113 150.455C498.769 150.455 496.075 153.318 496.075 156.63C496.075 161.121 501.071 162.581 508.369 164.209C513.477 165.332 522.066 167.072 522.066 175.942C522.066 179.534 520.55 187.955 506.797 187.955ZM548.471 187.281C548.303 185.766 548.191 184.811 548.135 182.903C545.945 186.046 542.408 187.955 537.693 187.955C532.921 187.955 527.027 185.934 527.027 179.31C527.027 173.415 531.686 169.598 542.296 169.598H548.135V169.037C548.135 165.388 547.91 160.391 540.724 160.391C535.167 160.391 533.258 163.423 532.697 166.623H527.813C528.543 160.672 532.584 156.406 540.949 156.406C550.717 156.406 553.018 162.244 553.018 168.475V180.938C553.018 183.071 553.131 185.485 553.355 187.281H548.471ZM538.872 183.969C543.531 183.969 548.247 181.724 548.247 173.303H542.801C535.391 173.303 532.023 175.156 532.023 178.861C532.023 182.173 534.662 183.969 538.872 183.969ZM571.23 150.624C567.525 150.624 566.627 151.522 566.627 154.89V157.079H572.858V161.065H566.627V187.281H561.743V161.065H557.364V157.079H561.743V154.722C561.743 149.95 563.314 146.638 569.882 146.638H573.195V150.624H571.23ZM589.199 156.406C598.573 156.406 603.85 163.367 603.345 173.528H579.711C580.16 179.59 583.529 183.801 589.311 183.801C593.802 183.801 597.114 181.275 598.068 177.457H603.064C601.717 184.306 596.328 187.955 589.311 187.955C580.104 187.955 574.659 181.611 574.659 172.18C574.659 162.749 580.273 156.406 589.199 156.406ZM598.181 169.766C598.068 165.219 595.261 160.504 589.03 160.504C583.529 160.504 580.441 164.209 579.767 169.766H598.181ZM640.24 187.955C627.384 187.955 621.209 178.019 621.209 166.96C621.209 155.9 627.384 145.964 640.24 145.964C650.176 145.964 656.127 151.915 657.811 159.998H652.421C651.243 155.62 647.931 150.511 640.24 150.511C631.931 150.511 626.486 156.462 626.486 166.96C626.486 177.401 631.987 183.408 640.24 183.408C647.931 183.408 651.243 178.299 652.421 173.921H657.811C656.127 182.004 650.176 187.955 640.24 187.955ZM677.725 156.406C684.967 156.406 688.111 161.121 688.111 167.689V187.281H683.227V168.868C683.227 164.097 681.599 160.504 676.434 160.504C670.652 160.504 667.845 164.995 667.845 170.889V187.281H662.961V146.638H667.845V161.851C670.091 157.753 673.852 156.406 677.725 156.406ZM715.129 187.281C714.961 185.766 714.848 184.811 714.792 182.903C712.603 186.046 709.066 187.955 704.351 187.955C699.579 187.955 693.685 185.934 693.685 179.31C693.685 173.415 698.344 169.598 708.954 169.598H714.792V169.037C714.792 165.388 714.568 160.391 707.382 160.391C701.825 160.391 699.916 163.423 699.355 166.623H694.471C695.2 160.672 699.242 156.406 707.607 156.406C717.375 156.406 719.676 162.244 719.676 168.475V180.938C719.676 183.071 719.789 185.485 720.013 187.281H715.129ZM705.53 183.969C710.189 183.969 714.905 181.724 714.905 173.303H709.459C702.049 173.303 698.681 175.156 698.681 178.861C698.681 182.173 701.319 183.969 705.53 183.969ZM726.609 146.638H732.672V152.588H726.609V146.638ZM727.171 157.079H732.055V187.281H727.171V157.079ZM754.147 156.406C761.388 156.406 764.532 161.121 764.532 167.689V187.281H759.648V168.868C759.648 164.097 758.02 160.504 752.856 160.504C747.073 160.504 744.267 164.995 744.267 170.889V187.281H739.383V157.079H744.267V161.851C746.512 157.753 750.273 156.406 754.147 156.406Z" fill="url(#paint0_radial_33983_88661)"/>
</g>
<path d="M204.185 137.453H146V157.951H204.185V137.453Z" fill="#6551F3"/>
<path d="M146 177.174C162.553 162.234 187.632 162.234 204.185 177.174V202.719L204.173 202.731L175.092 173.302L146.011 202.731L146 202.719V177.174Z" fill="#6551F3"/>
<path d="M272.483 182.971H271.236C270.057 182.971 269.157 182.763 268.533 182.277C267.91 181.791 267.563 180.819 267.563 179.292V166.867C267.563 162.563 266.246 159.093 263.683 156.385C261.119 153.678 256.892 152.359 251.071 152.359C245.804 152.359 241.716 153.539 238.875 155.83C236.034 158.19 234.301 161.383 233.817 165.479H243.033C243.656 161.383 246.29 159.37 250.794 159.37C253.496 159.37 255.437 160.064 256.476 161.453C257.515 162.841 258.07 164.785 258.07 167.283V168.325H250.586C244.696 168.325 240.192 169.366 237.143 171.518C234.093 173.67 232.569 176.585 232.569 180.264C232.569 184.012 233.955 186.789 236.727 188.594C239.499 190.468 242.756 191.37 246.567 191.37C252.457 191.37 256.822 189.288 259.525 185.054C260.148 187.067 261.188 188.524 262.643 189.288C264.098 190.121 266.246 190.537 269.226 190.537H272.483V182.971ZM248.715 184.36C246.636 184.36 245.042 183.874 243.934 182.971C242.756 182.069 242.201 180.889 242.201 179.431C242.201 176.03 245.389 174.294 251.833 174.294H258.208C258.208 177.765 257.308 180.334 255.437 181.93C253.566 183.527 251.348 184.36 248.715 184.36Z" fill="white"/>
<path d="M278.437 140.281V149.236H287.93V140.281H278.437ZM278.437 153.192V190.537H287.93V153.192H278.437Z" fill="white"/>
<path d="M296.015 140.281V190.537H305.508V179.778L310.359 174.78L321.099 190.537H332.325L316.803 167.908L330.939 153.192H319.228L305.508 167.631V140.281H296.015Z" fill="white"/>
<path d="M336.833 140.281V149.236H346.327V140.281H336.833ZM336.833 153.192V190.537H346.327V153.192H336.833Z" fill="white"/>
<path d="M390.716 140.281H381.222V158.676C378.659 154.442 374.708 152.359 369.511 152.359C364.591 152.359 360.572 154.095 357.593 157.635C354.613 161.175 353.088 165.965 353.088 171.865C353.088 177.765 354.613 182.485 357.593 186.025C360.572 189.566 364.591 191.37 369.511 191.37C374.708 191.37 378.659 189.288 381.222 185.054V190.537H390.716V140.281ZM372.075 183.804C368.957 183.804 366.67 182.694 365.077 180.403C363.483 178.182 362.721 175.336 362.721 171.865C362.721 168.394 363.483 165.548 365.077 163.257C366.67 160.967 368.957 159.856 372.075 159.856C375.124 159.856 377.48 160.967 379.213 163.119C380.876 165.34 381.708 168.255 381.708 171.865C381.708 175.474 380.876 178.39 379.213 180.542C377.48 182.694 375.124 183.804 372.075 183.804Z" fill="white"/>
<path d="M415.309 191.37C421.13 191.37 425.704 189.635 429.099 186.095C432.425 182.555 434.088 177.835 434.088 171.865C434.088 165.895 432.425 161.175 429.099 157.635C425.704 154.095 421.13 152.359 415.309 152.359C409.419 152.359 404.846 154.095 401.519 157.635C398.194 161.175 396.53 165.895 396.53 171.865C396.53 177.835 398.194 182.555 401.519 186.095C404.846 189.635 409.419 191.37 415.309 191.37ZM415.309 183.804C412.33 183.804 410.112 182.763 408.518 180.681C406.924 178.668 406.162 175.683 406.162 171.865C406.162 168.047 406.924 165.062 408.518 162.98C410.112 160.897 412.33 159.856 415.309 159.856C418.289 159.856 420.506 160.897 422.1 162.98C423.693 165.062 424.456 168.047 424.456 171.865C424.456 175.683 423.693 178.668 422.1 180.681C420.506 182.763 418.289 183.804 415.309 183.804Z" fill="white"/>
<path d="M1555.2 542C1555.01 540.272 1554.88 539.184 1554.82 537.008C1552.32 540.592 1548.29 542.768 1542.91 542.768C1537.47 542.768 1530.75 540.464 1530.75 532.912C1530.75 526.192 1536.06 521.84 1548.16 521.84H1554.82V521.2C1554.82 517.04 1554.56 511.344 1546.37 511.344C1540.03 511.344 1537.86 514.8 1537.22 518.448H1531.65C1532.48 511.664 1537.09 506.8 1546.62 506.8C1557.76 506.8 1560.38 513.456 1560.38 520.56V534.768C1560.38 537.2 1560.51 539.952 1560.77 542H1555.2ZM1544.26 538.224C1549.57 538.224 1554.94 535.664 1554.94 526.064H1548.74C1540.29 526.064 1536.45 528.176 1536.45 532.4C1536.45 536.176 1539.46 538.224 1544.26 538.224ZM1568.29 495.664H1575.2V502.448H1568.29V495.664ZM1568.93 507.568H1574.5V542H1568.93V507.568ZM1582.73 495.664H1588.29V523.44L1603.65 507.568H1610.63L1597.51 521.072L1611.85 542H1605.32L1593.73 525.04L1588.29 530.608V542H1582.73V495.664ZM1616.48 495.664H1623.39V502.448H1616.48V495.664ZM1617.12 507.568H1622.68V542H1617.12V507.568ZM1661.74 495.664V542H1656.17V536.304C1653.93 540.08 1650.28 542.768 1644.84 542.768C1636.26 542.768 1630.18 535.984 1630.18 524.784C1630.18 513.52 1636.26 506.8 1644.84 506.8C1650.28 506.8 1653.93 509.488 1656.17 513.264V495.664H1661.74ZM1646.06 538.032C1652.33 538.032 1656.49 532.592 1656.49 524.784C1656.49 516.976 1652.33 511.472 1646.06 511.472C1639.72 511.472 1635.88 517.04 1635.88 524.784C1635.88 532.528 1639.72 538.032 1646.06 538.032ZM1684.06 542.768C1674.01 542.768 1667.87 535.792 1667.87 524.784C1667.87 513.776 1674.01 506.8 1684.06 506.8C1694.04 506.8 1700.25 513.776 1700.25 524.784C1700.25 535.792 1694.04 542.768 1684.06 542.768ZM1684.06 538.032C1690.65 538.032 1694.56 533.104 1694.56 524.784C1694.56 516.464 1690.65 511.472 1684.06 511.472C1677.47 511.472 1673.56 516.464 1673.56 524.784C1673.56 533.104 1677.47 538.032 1684.06 538.032ZM1705.27 534.704H1712.44V542H1705.27V534.704ZM1749.3 495.664V542H1743.73V536.304C1741.49 540.08 1737.84 542.768 1732.4 542.768C1723.83 542.768 1717.75 535.984 1717.75 524.784C1717.75 513.52 1723.83 506.8 1732.4 506.8C1737.84 506.8 1741.49 509.488 1743.73 513.264V495.664H1749.3ZM1733.62 538.032C1739.89 538.032 1744.05 532.592 1744.05 524.784C1744.05 516.976 1739.89 511.472 1733.62 511.472C1727.28 511.472 1723.44 517.04 1723.44 524.784C1723.44 532.528 1727.28 538.032 1733.62 538.032ZM1772.01 506.8C1782.69 506.8 1788.71 514.736 1788.13 526.32H1761.19C1761.7 533.232 1765.54 538.032 1772.13 538.032C1777.25 538.032 1781.03 535.152 1782.12 530.8H1787.81C1786.28 538.608 1780.13 542.768 1772.13 542.768C1761.64 542.768 1755.43 535.536 1755.43 524.784C1755.43 514.032 1761.83 506.8 1772.01 506.8ZM1782.25 522.032C1782.12 516.848 1778.92 511.472 1771.81 511.472C1765.54 511.472 1762.02 515.696 1761.25 522.032H1782.25ZM1791.02 507.568H1797.1L1806.7 535.152L1816.3 507.568H1822.32L1809.58 542H1803.76L1791.02 507.568ZM1841.41 495.664H1847.17L1828.48 542H1822.72L1841.41 495.664ZM1860.58 542.768C1850.73 542.768 1845.67 537.456 1845.03 530.928H1850.6C1851.56 534.576 1853.99 538.16 1860.65 538.16C1866.79 538.16 1868.97 535.088 1868.97 532.528C1868.97 528.688 1864.42 527.728 1859.43 526.768C1854.06 525.68 1845.8 524.08 1845.8 516.592C1845.8 510.32 1851.82 506.8 1859.3 506.8C1868.71 506.8 1873.19 512.24 1873.83 517.296H1868.2C1867.43 514.8 1865.51 511.408 1859.11 511.408C1853.8 511.408 1851.43 513.776 1851.43 516.4C1851.43 520.112 1856.3 521.136 1861.42 522.224C1868.01 523.568 1874.6 525.296 1874.6 531.952C1874.6 537.328 1870.5 542.768 1860.58 542.768ZM1904.2 542C1904.01 540.272 1903.88 539.184 1903.82 537.008C1901.32 540.592 1897.29 542.768 1891.91 542.768C1886.47 542.768 1879.75 540.464 1879.75 532.912C1879.75 526.192 1885.06 521.84 1897.16 521.84H1903.82V521.2C1903.82 517.04 1903.56 511.344 1895.37 511.344C1889.03 511.344 1886.86 514.8 1886.22 518.448H1880.65C1881.48 511.664 1886.09 506.8 1895.62 506.8C1906.76 506.8 1909.38 513.456 1909.38 520.56V534.768C1909.38 537.2 1909.51 539.952 1909.77 542H1904.2ZM1893.26 538.224C1898.57 538.224 1903.94 535.664 1903.94 526.064H1897.74C1889.29 526.064 1885.45 528.176 1885.45 532.4C1885.45 536.176 1888.46 538.224 1893.26 538.224ZM1930.15 500.208C1925.92 500.208 1924.9 501.232 1924.9 505.072V507.568H1932V512.112H1924.9V542H1919.33V512.112H1914.34V507.568H1919.33V504.88C1919.33 499.44 1921.12 495.664 1928.61 495.664H1932.39V500.208H1930.15ZM1950.63 506.8C1961.32 506.8 1967.34 514.736 1966.76 526.32H1939.82C1940.33 533.232 1944.17 538.032 1950.76 538.032C1955.88 538.032 1959.66 535.152 1960.74 530.8H1966.44C1964.9 538.608 1958.76 542.768 1950.76 542.768C1940.26 542.768 1934.06 535.536 1934.06 524.784C1934.06 514.032 1940.46 506.8 1950.63 506.8ZM1960.87 522.032C1960.74 516.848 1957.54 511.472 1950.44 511.472C1944.17 511.472 1940.65 515.696 1939.88 522.032H1960.87ZM1987.94 542.768C1977.63 542.768 1971.68 535.536 1971.68 524.784C1971.68 514.032 1977.63 506.8 1987.94 506.8C1995.81 506.8 2001.31 511.024 2002.91 518.768H1997.15C1996 514.352 1992.86 511.472 1987.74 511.472C1980.58 511.472 1977.38 516.976 1977.38 524.784C1977.38 532.528 1980.58 538.032 1987.74 538.032C1993.06 538.032 1996 535.152 1997.15 530.8H2002.91C2001.31 538.544 1995.81 542.768 1987.94 542.768ZM2026.06 506.8C2034.31 506.8 2037.9 512.176 2037.9 519.664V542H2032.33V521.008C2032.33 515.568 2030.47 511.472 2024.59 511.472C2017.99 511.472 2014.79 516.592 2014.79 523.312V542H2009.23V495.664H2014.79V513.008C2017.35 508.336 2021.64 506.8 2026.06 506.8ZM2068.7 542C2068.51 540.272 2068.38 539.184 2068.32 537.008C2065.82 540.592 2061.79 542.768 2056.41 542.768C2050.97 542.768 2044.25 540.464 2044.25 532.912C2044.25 526.192 2049.56 521.84 2061.66 521.84H2068.32V521.2C2068.32 517.04 2068.06 511.344 2059.87 511.344C2053.53 511.344 2051.36 514.8 2050.72 518.448H2045.15C2045.98 511.664 2050.59 506.8 2060.12 506.8C2071.26 506.8 2073.88 513.456 2073.88 520.56V534.768C2073.88 537.2 2074.01 539.952 2074.27 542H2068.7ZM2057.76 538.224C2063.07 538.224 2068.44 535.664 2068.44 526.064H2062.24C2053.79 526.064 2049.95 528.176 2049.95 532.4C2049.95 536.176 2052.96 538.224 2057.76 538.224ZM2081.79 495.664H2088.7V502.448H2081.79V495.664ZM2082.43 507.568H2088V542H2082.43V507.568ZM2113.18 506.8C2121.44 506.8 2125.02 512.176 2125.02 519.664V542H2119.45V521.008C2119.45 515.568 2117.6 511.472 2111.71 511.472C2105.12 511.472 2101.92 516.592 2101.92 523.312V542H2096.35V507.568H2101.92V513.008C2104.48 508.336 2108.77 506.8 2113.18 506.8Z" fill="white" fill-opacity="0.8"/>
<defs>
<filter id="filter0_f_33983_88661" x="134" y="-417" width="2012" height="1524" filterUnits="userSpaceOnUse" color-interpolation-filters="sRGB">
<feFlood flood-opacity="0" result="BackgroundImageFix"/>
<feBlend mode="normal" in="SourceGraphic" in2="BackgroundImageFix" result="shape"/>
<feGaussianBlur stdDeviation="250" result="effect1_foregroundBlur_33983_88661"/>
</filter>
<filter id="filter1_f_33983_88661" x="134" y="-417" width="2012" height="1524" filterUnits="userSpaceOnUse" color-interpolation-filters="sRGB">
<feFlood flood-opacity="0" result="BackgroundImageFix"/>
<feBlend mode="normal" in="SourceGraphic" in2="BackgroundImageFix" result="shape"/>
<feGaussianBlur stdDeviation="250" result="effect1_foregroundBlur_33983_88661"/>
</filter>
<radialGradient id="paint0_radial_33983_88661" cx="0" cy="0" r="1" gradientTransform="matrix(246.355 77.3125 -17.0778 56.1094 628.116 165.281)" gradientUnits="userSpaceOnUse">
<stop stop-color="white"/>
<stop offset="1" stop-color="#999999"/>
</radialGradient>
<clipPath id="clip0_33983_88661">
<rect width="2216" height="626" fill="white" transform="translate(32 32)"/>
</clipPath>
<clipPath id="clip1_33983_88661">
<rect width="264.983" height="89.8719" fill="white" transform="translate(189 139.258)"/>
</clipPath>
<clipPath id="clip2_33983_88661">
<rect width="2216" height="626" fill="white" transform="translate(32 32)"/>
</clipPath>
</defs>
</svg>
